<svg width="591" height="479" viewBox="0 0 591 479" fill="none" xmlns="http://www.w3.org/2000/svg">
<g clip-path="url(#clip0)">
<path d="M572.643 261.903C571.613 251.405 562.715 243.25 551.944 243.25C549.977 243.25 548.01 243.531 546.137 244.093C542.484 229.658 529.559 219.44 514.479 219.44C501.648 219.44 490.034 227.033 484.695 238.563C481.604 237.157 478.139 236.407 474.674 236.407C461.655 236.407 450.977 246.812 450.509 259.747H414.918V263.966H455.005V259.747H454.911C455.379 249.155 464.09 240.625 474.861 240.625C478.42 240.625 481.885 241.562 484.883 243.343L487.037 244.656L487.88 242.312C492.001 231.157 502.678 223.752 514.573 223.752C528.435 223.752 540.236 233.688 542.578 247.28L543.046 249.905L545.481 248.874C547.542 247.936 549.79 247.561 552.037 247.561C561.123 247.561 568.615 254.967 568.615 264.153V266.309H590.719V262.091H572.643V261.903Z" fill="#2D3436"/>
<path d="M487.975 275.589H440.957V279.339H487.975V275.589Z" fill="#2D3436"/>
<path d="M575.266 275.589H501.555V279.339H575.266V275.589Z" fill="#2D3436"/>
<path d="M536.394 291.993H474.578V295.743H536.394V291.993Z" fill="#2D3436"/>
<path d="M154.163 39.3699C153.133 29.6211 144.985 22.0284 134.963 22.0284C133.09 22.0284 131.31 22.3096 129.53 22.7783C126.252 9.46751 114.264 0 100.215 0C88.3197 0 77.5487 7.03033 72.6784 17.8102C69.7749 16.4978 66.5904 15.8417 63.4059 15.8417C51.3237 15.8417 41.3956 25.4967 41.021 37.4951H26.1289V41.4321H44.9547V37.4951H44.8611C45.3294 27.5589 53.3842 19.6849 63.4059 19.6849C66.6841 19.6849 69.8685 20.5286 72.6784 22.2159L74.7389 23.4344L75.5818 21.2785C79.4219 10.9673 89.35 4.03072 100.308 4.03072C113.14 4.03072 124.098 13.217 126.252 25.8716L126.721 28.3088L128.969 27.2777C130.935 26.4341 132.902 26.0591 135.056 26.0591C143.486 26.0591 150.417 32.9957 150.417 41.4321V43.4006H170.929V39.3699H154.163Z" fill="#2D3436"/>
<path d="M94.1292 53.3368H0V57.0863H94.1292V53.3368Z" fill="#2D3436"/>
<path d="M155.01 71.2407H66.5V74.9902H155.01V71.2407Z" fill="#2D3436"/>
<path d="M187.32 52.3994H142.363V56.1489H187.32V52.3994Z" fill="#2D3436"/>
<path d="M311.047 273.714H287.07V481.625H311.047V273.714Z" fill="#E7E7E7" stroke="#2D3436" stroke-width="5" stroke-miterlimit="10"/>
<path d="M351.039 29.9023H298.776H298.027H245.764L174.582 103.768V208.941L244.921 279.339H298.027H298.776H351.882L422.221 208.941V103.768L351.039 29.9023Z" fill="#D82727" stroke="#2D3436" stroke-width="5" stroke-miterlimit="10"/>
<path d="M347.292 267.715H249.604L186.383 204.442V108.361L250.821 41.5258H346.075L410.513 108.361V204.348L347.292 267.715ZM252.507 260.591H344.389L403.489 201.442V111.173L343.077 48.5561H253.819L193.407 111.173V201.442L252.507 260.591Z" fill="white"/>
<path d="M299.389 241.876L299.363 241.875H299.337C296.892 241.875 295.059 243.842 295.059 246.155C295.059 248.6 297.023 250.436 299.337 250.436C301.782 250.436 303.615 248.469 303.615 246.155C303.615 243.778 301.633 241.994 299.389 241.876Z" fill="#E7E7E7" stroke="#2D3436" stroke-width="2"/>
<path d="M299.389 58.8998L299.363 58.8984H299.337C296.892 58.8984 295.059 60.8655 295.059 63.1793C295.059 65.6241 297.023 67.4601 299.337 67.4601C301.782 67.4601 303.615 65.493 303.615 63.1793C303.615 60.8019 301.633 59.018 299.389 58.8998Z" fill="#E7E7E7" stroke="#2D3436" stroke-width="2"/>
<path d="M250.918 186.632V169.572H221.789V163.947L249.7 123.921H258.879V162.823H267.683V169.478H258.879V186.538H250.918V186.632ZM250.918 162.916V142.013C250.918 138.732 251.011 135.451 251.199 132.17H250.918C248.951 135.826 247.452 138.544 245.673 141.45L230.406 162.729V162.916H250.918Z" fill="#F7F9F9"/>
<path d="M320.6 154.574C320.6 175.852 312.733 187.663 298.871 187.663C286.601 187.663 278.359 176.227 278.172 155.511C278.172 134.514 287.257 122.89 299.901 122.89C313.107 122.89 320.6 134.607 320.6 154.574ZM286.601 155.605C286.601 171.915 291.565 181.101 299.339 181.101C308.05 181.101 312.171 170.978 312.171 154.949C312.171 139.482 308.237 129.452 299.433 129.452C291.94 129.452 286.601 138.544 286.601 155.605Z" fill="#F7F9F9"/>
<path d="M359.375 186.632V169.572H330.34V163.947L358.251 123.921H367.43V162.823H376.234V169.478H367.43V186.538H359.375V186.632ZM359.375 162.916V142.013C359.375 138.732 359.468 135.451 359.656 132.17H359.375C357.408 135.826 355.909 138.544 354.13 141.45L338.863 162.729V162.916H359.375Z" fill="#F7F9F9"/>
</g>
<defs>
<clipPath id="clip0">
<rect width="591" height="479" fill="white"/>
</clipPath>
</defs>
</svg>
