<svg width="61" height="60" viewBox="0 0 61 60" fill="none" xmlns="http://www.w3.org/2000/svg">
<path d="M5.11518 40.3905V45.1479C5.11518 45.5384 5.35529 45.8816 5.71544 46.0355C5.83549 46.0828 5.96756 46.1183 6.09962 46.1183H10.9257V44.1893H7.08404V40.4023H5.11518V40.3905Z" fill="#2D3436"/>
<path d="M16.0386 44.1775H14.0819V46.1065H16.0386V44.1775Z" fill="#2D3436"/>
<path d="M49.3437 35.3491V0.970415C49.3437 0.43787 48.8996 0 48.3593 0H21.467C21.4189 0 21.3709 0 21.3109 0.0118343L21.2388 0.0236687C21.2148 0.0236687 21.2028 0.0236687 21.1908 0.035503H21.1788C21.1668 0.035503 21.1548 0.0473373 21.1548 0.0473373H21.1428C21.1308 0.0473373 21.1188 0.0591716 21.0948 0.0591716C21.0828 0.0591716 21.0828 0.071006 21.0708 0.071006L21.0468 0.0828403C21.0348 0.0828403 21.0227 0.0946746 21.0107 0.0946746L20.9747 0.118343C20.9627 0.130178 20.9507 0.130178 20.9387 0.142012L20.9027 0.165681C20.8907 0.177515 20.8667 0.189349 20.8547 0.201184C20.8307 0.224852 20.8066 0.248521 20.7826 0.27219L11.8145 9.11243C11.6224 9.28995 11.5264 9.53847 11.5264 9.79883V35.3373H8.9692V37.2781H51.9129V35.3491H49.3437ZM13.4833 35.3491V10.2012L20.4825 3.30178V8.84024H17.9253V10.7692H21.467C22.0072 10.7692 22.4514 10.3314 22.4514 9.79883V1.929H47.3868V35.3491H13.4833Z" fill="#2D3436"/>
<path d="M42.9305 13.8817H17.9229V15.8107H42.9305V13.8817Z" fill="#2D3436"/>
<path d="M42.93 19.2781H17.9225V21.2071H42.93V19.2781Z" fill="#2D3436"/>
<path d="M57.3264 8.8402H52.5002V10.7692H57.3264C58.2028 10.7692 58.9111 11.4674 58.9111 12.3313V47.6805C58.9111 48.1065 58.7431 48.5089 58.4189 48.8047C58.3469 48.8639 58.2748 48.9349 58.1908 48.9822C58.1067 49.0296 58.0347 49.0769 57.9387 49.1124C57.9147 49.1243 57.8906 49.1361 57.8546 49.1479C57.6865 49.2071 57.5065 49.2426 57.3144 49.2426H3.52963C3.33754 49.2426 3.15746 49.2071 2.97738 49.1479C2.95337 49.1361 2.92934 49.1243 2.90533 49.1243C2.80929 49.0888 2.73726 49.0414 2.65322 48.9941C2.56918 48.9349 2.49714 48.8757 2.42511 48.8166C2.11297 48.5325 1.94489 48.1183 1.94489 47.6923V12.3313C1.94489 11.4674 2.65322 10.7692 3.52963 10.7692H8.35584V8.8402H3.54163C1.58473 8.8402 0 10.4023 0 12.3313V47.6805C0 48.0947 0.072039 48.5089 0.216105 48.8876C0.240116 48.9349 0.25211 48.9822 0.264116 49.0296C0.492221 49.5621 0.852392 50.0473 1.32061 50.4024C1.50069 50.5444 1.69277 50.6627 1.88486 50.7692C1.89687 50.7811 1.92088 50.7811 1.93289 50.7929L1.96891 50.8166C2.04094 50.8521 2.12498 50.8876 2.19702 50.9231C2.60521 51.0887 3.0374 51.1716 3.4696 51.1834C3.50562 51.1834 3.51762 51.1834 3.54163 51.1834H22.3783L22.3423 51.503C22.3303 51.6095 22.3183 51.7041 22.3063 51.7988C22.2943 51.858 22.2943 51.929 22.2823 51.9882C22.2702 52.0237 22.2703 52.0473 22.2703 52.071V52.0828C22.2703 52.1183 22.2582 52.1538 22.2582 52.1775C22.2582 52.1893 22.2583 52.213 22.2462 52.213L22.2102 52.3905C22.1982 52.4379 22.1862 52.497 22.1742 52.5444C22.1622 52.5799 22.1622 52.6154 22.1502 52.6509L22.1382 52.6982C22.1022 52.8521 22.0662 52.9941 22.0301 53.1479C22.0181 53.1953 22.0061 53.2426 21.9821 53.2899C21.9701 53.3491 21.9461 53.4083 21.9221 53.4675C21.8981 53.5266 21.8861 53.5858 21.8501 53.6568C21.826 53.7396 21.79 53.8343 21.754 53.929C21.682 54.0947 21.61 54.2604 21.5259 54.426C21.5019 54.4852 21.4659 54.5325 21.4419 54.5917C21.3818 54.6982 21.3338 54.7929 21.2858 54.8757C21.2858 54.8876 21.2738 54.8994 21.2738 54.9112C21.2258 54.9941 21.1657 55.0769 21.1057 55.1716C21.0697 55.2189 21.0457 55.2663 21.0097 55.3136C20.9977 55.3373 20.9737 55.3728 20.9496 55.3965L20.9376 55.4201C20.8656 55.5148 20.7936 55.6213 20.7095 55.716C20.6855 55.7515 20.6615 55.7752 20.6255 55.8107C20.5895 55.858 20.5535 55.8935 20.5174 55.929C20.4934 55.9527 20.4694 55.9763 20.4454 56L20.4214 56.0237C20.3374 56.1065 20.2653 56.1775 20.1933 56.2485C20.1693 56.2722 20.1453 56.2959 20.1093 56.3195L20.0853 56.3432C20.0492 56.3787 20.0132 56.4024 19.9772 56.4379C19.8451 56.5444 19.7131 56.6627 19.569 56.7574C19.521 56.7929 19.485 56.8166 19.449 56.8521C19.3769 56.8994 19.3049 56.9468 19.2449 56.9941C19.2088 57.0178 19.1728 57.0414 19.1368 57.0651C19.1248 57.0769 19.1008 57.0769 19.0888 57.0888C19.0528 57.1124 19.0288 57.1243 18.9927 57.1479C18.9807 57.1598 18.9687 57.1598 18.9447 57.1716C18.9087 57.1834 18.8727 57.2071 18.8487 57.2308C18.8127 57.2544 18.7766 57.2663 18.7406 57.2899C18.7286 57.3018 18.7046 57.3136 18.6686 57.3254L18.6326 57.3491C18.5485 57.3846 18.4765 57.4201 18.4045 57.4556C18.3805 57.4675 18.3564 57.4793 18.3204 57.4911L18.2964 57.503C18.2244 57.5385 18.1524 57.5621 18.0803 57.5976C18.0083 57.6331 17.9363 57.6568 17.8642 57.6805C17.8282 57.6923 17.7922 57.7041 17.7562 57.716C17.7202 57.7278 17.6721 57.7396 17.6361 57.7633L17.6001 57.7988H17.5161C17.432 57.8225 17.348 57.8462 17.264 57.8698C17.1199 57.9053 16.9998 57.9408 16.8918 57.9645C16.7957 57.9882 16.6877 58 16.6036 58.0237L16.5796 58.0355L16.4716 58.0473L16.3995 58.0592C16.3635 58.0592 16.3395 58.071 16.3155 58.071C16.2915 58.071 16.2435 58.0828 16.2195 58.0828H16.1835C16.0634 58.0947 15.9553 58.1065 15.8593 58.1065H15.7032C15.6792 58.1065 15.6672 58.1065 15.6552 58.1065C15.6312 58.1065 15.6072 58.1065 15.5952 58.1065C15.5832 58.1065 15.5712 58.1065 15.5472 58.1183L15.4751 58.1302C15.4511 58.1302 15.4391 58.142 15.4151 58.142C15.3671 58.1538 15.3311 58.1775 15.283 58.1894C15.235 58.213 15.199 58.2367 15.151 58.2604C15.139 58.2722 15.127 58.2722 15.115 58.284L15.103 58.2959C15.091 58.3077 15.0789 58.3077 15.0669 58.3195C15.0189 58.3669 14.9709 58.4024 14.9349 58.4497C14.9109 58.4734 14.8989 58.497 14.8749 58.5207C14.8628 58.5444 14.8508 58.5562 14.8388 58.5799L14.8268 58.5917C14.8148 58.6036 14.8028 58.6272 14.8028 58.639C14.7668 58.7101 14.7428 58.7574 14.7308 58.8166C14.7308 58.8284 14.7308 58.8402 14.7188 58.8521L14.7068 58.9112C14.7068 58.9231 14.7068 58.9467 14.7068 58.9586C14.7068 58.9586 14.7068 58.9704 14.7068 58.9941V59.0296C14.7068 59.0414 14.7068 59.0533 14.7068 59.0651C14.7068 59.0888 14.7068 59.1006 14.7068 59.1243V59.1479C14.7068 59.1598 14.7068 59.1716 14.7068 59.1834C14.7068 59.1953 14.7068 59.2071 14.7068 59.2189L14.7188 59.2663C14.7188 59.2899 14.7308 59.3018 14.7308 59.3254C14.7428 59.3728 14.7668 59.4319 14.7908 59.4911C14.8028 59.5148 14.8148 59.5266 14.8148 59.5385L14.8268 59.5621C14.8388 59.574 14.8508 59.5976 14.8628 59.6095C14.8869 59.6331 14.8989 59.6568 14.9229 59.6805C14.9709 59.7396 15.0309 59.7988 15.0909 59.8462C15.127 59.8698 15.163 59.8935 15.211 59.9172C15.271 59.9527 15.3311 59.9763 15.3911 59.9882C15.4031 59.9882 15.4151 60 15.4271 60H15.4391C15.4511 60 15.4511 60 15.4631 60H15.5111C15.5231 60 15.5352 60 15.5472 60H15.5592C15.5712 60 15.5952 60 15.6072 60C15.6312 60 15.6432 60 15.6672 60H45.1168C45.1408 60 45.1528 60 45.1768 60C45.2008 60 45.2248 60 45.2488 60C45.2608 60 45.2728 60 45.2848 60L45.3209 59.9882C45.3329 59.9882 45.3449 59.9882 45.3569 59.9763H45.3689C45.3809 59.9763 45.3929 59.9645 45.4169 59.9645C45.4769 59.9408 45.537 59.9172 45.585 59.8935C45.633 59.8698 45.669 59.8462 45.705 59.8225C45.7651 59.7752 45.8251 59.716 45.8731 59.6568C45.8971 59.6331 45.9091 59.6095 45.9211 59.5858C45.9331 59.5621 45.9452 59.5503 45.9572 59.5266L45.9692 59.5148C45.9812 59.503 45.9812 59.4793 45.9932 59.4675C46.0292 59.3964 46.0532 59.3491 46.0652 59.2899C46.0652 59.2781 46.0772 59.2663 46.0772 59.2426L46.1012 59.0888C46.1012 59.0769 46.1012 59.0533 46.1012 59.0414C46.1012 59.0296 46.1012 59.0178 46.1012 59.0059L46.0772 58.8402C46.0772 58.8166 46.0652 58.8047 46.0652 58.7811C46.0532 58.7337 46.0292 58.6746 46.0052 58.6154C45.9932 58.6035 45.9932 58.5799 45.9812 58.568L45.9692 58.5444C45.9571 58.5325 45.9452 58.5089 45.9332 58.497C45.9091 58.4734 45.8971 58.4497 45.8731 58.426C45.8251 58.3787 45.7891 58.3314 45.7411 58.2959C45.729 58.284 45.717 58.284 45.705 58.2722L45.693 58.2604C45.681 58.2485 45.681 58.2485 45.669 58.2367C45.621 58.213 45.585 58.1894 45.537 58.1657C45.5009 58.142 45.4529 58.1302 45.4049 58.1183H45.3929C45.3809 58.1183 45.3569 58.1065 45.3449 58.1065L45.2729 58.0947C45.2608 58.0947 45.2488 58.0947 45.2368 58.0828C45.2128 58.0828 45.2008 58.0828 45.1768 58.0828C45.1288 58.0828 45.1168 58.0828 45.0327 58.0828H44.9487C44.8526 58.0828 44.7326 58.071 44.6245 58.0592H44.6005C44.5645 58.0592 44.5285 58.0473 44.4805 58.0473C44.4445 58.0473 44.3964 58.0355 44.3604 58.0355L44.1924 58.0118C44.1083 58 44.0123 57.9763 43.9042 57.9527C43.7962 57.929 43.6761 57.9053 43.5321 57.8698C43.448 57.8462 43.3519 57.8225 43.2679 57.7988L43.2319 57.787C43.1599 57.7633 43.0998 57.7396 43.0278 57.716L42.9318 57.6805C42.8597 57.6568 42.7877 57.6213 42.7157 57.5976C42.6436 57.574 42.5716 57.5385 42.4996 57.503C42.4635 57.4911 42.4275 57.4675 42.3915 57.4556C42.3195 57.4201 42.2475 57.3846 42.1754 57.3491L42.1394 57.3254C42.1154 57.3136 42.0914 57.3018 42.0674 57.2899L42.0554 57.2781C42.0194 57.2544 41.9833 57.2426 41.9473 57.2189L41.9233 57.2071C41.8993 57.1953 41.8873 57.1834 41.8633 57.1716L41.7913 57.1243C41.7672 57.1124 41.7432 57.1006 41.7312 57.0888C41.7192 57.0769 41.6952 57.0651 41.6832 57.0533C41.6472 57.0296 41.6111 57.0059 41.5631 56.9822C41.4911 56.9349 41.4311 56.8994 41.359 56.8521C41.311 56.8166 41.275 56.7929 41.227 56.7574C41.0829 56.6509 40.9388 56.5444 40.8188 56.426C40.7948 56.4024 40.7588 56.3669 40.7227 56.3432C40.6867 56.3077 40.6507 56.2722 40.6147 56.2485C40.5427 56.1775 40.4586 56.1065 40.3866 56.0237C40.3506 55.9882 40.3266 55.9527 40.2906 55.9172C40.2545 55.8817 40.2305 55.8462 40.1945 55.8107L40.1825 55.7988C40.1585 55.7633 40.1225 55.7278 40.0985 55.7041C40.0144 55.6095 39.9424 55.503 39.8704 55.4083C39.8464 55.3728 39.8223 55.3373 39.7983 55.3018C39.7743 55.2781 39.7623 55.2426 39.7383 55.2189L39.7023 55.1716C39.6422 55.0769 39.5822 54.9941 39.5342 54.8994L39.5222 54.8876C39.5222 54.8876 39.5222 54.8876 39.5102 54.8757C39.4502 54.7811 39.4021 54.6864 39.3421 54.5917C39.3181 54.5325 39.2821 54.4852 39.2581 54.426C39.174 54.2604 39.102 54.0947 39.03 53.929C38.994 53.8343 38.9579 53.7396 38.9219 53.645V53.6331C38.9099 53.6095 38.9099 53.5858 38.8979 53.5621L38.8499 53.4201C38.8379 53.3728 38.8139 53.3254 38.8019 53.2781C38.7898 53.2308 38.7659 53.1716 38.7538 53.1243C38.7058 52.9704 38.6698 52.8284 38.6458 52.6864L38.6338 52.639C38.6218 52.6035 38.6218 52.568 38.6098 52.5325C38.5978 52.4852 38.5858 52.4379 38.5738 52.3787L38.5377 52.1657C38.5257 52.1302 38.5257 52.0947 38.5257 52.071V52.0592C38.5257 52.0355 38.5137 52.0118 38.5137 51.9763C38.4897 51.8225 38.4657 51.6686 38.4537 51.4911L38.4177 51.1598H57.3264C57.3504 51.1598 57.3744 51.1598 57.3984 51.1598C57.8426 51.1479 58.2748 51.0651 58.683 50.8994C58.7551 50.8639 58.8391 50.8284 58.9111 50.7929C58.9351 50.7811 58.9591 50.7692 58.9832 50.7574C59.1873 50.6509 59.3673 50.5325 59.5474 50.3905C60.0156 50.0237 60.3758 49.5503 60.6039 49.0059C60.6279 48.9586 60.6399 48.9231 60.6519 48.8757C60.796 48.4852 60.868 48.0828 60.868 47.6686V12.3313C60.868 10.4023 59.2713 8.8402 57.3264 8.8402ZM39.2101 57.5621L39.7023 58.0592H21.1657L21.658 57.5621C22.0542 57.1479 22.4263 56.6982 22.7505 56.2249C22.8225 56.1183 22.9065 56 22.9786 55.8698C23.0626 55.7396 23.1346 55.6213 23.1947 55.503C23.2787 55.3609 23.3387 55.2426 23.3868 55.1243C23.4468 55.0059 23.4948 54.8994 23.5428 54.7811C23.6269 54.6035 23.6989 54.426 23.7589 54.2722C23.819 54.1065 23.879 53.9408 23.939 53.7396C24.0951 53.2544 24.2031 52.7692 24.2752 52.284C24.2992 52.1538 24.3112 52.0237 24.3232 51.858C24.3352 51.7278 24.3472 51.5858 24.3592 51.4319L24.3832 51.1598H36.4608L36.4848 51.4319C36.4968 51.5858 36.5088 51.7278 36.5208 51.858C36.5328 52.0237 36.5568 52.1538 36.5688 52.284C36.6409 52.7692 36.7609 53.2544 36.905 53.7396C36.965 53.929 37.025 54.1065 37.0851 54.2604C37.1451 54.426 37.2171 54.6035 37.3012 54.7811C37.3492 54.8876 37.3972 54.9941 37.4572 55.1124C37.5173 55.2308 37.5773 55.3491 37.6613 55.4911C37.7214 55.6095 37.7934 55.7278 37.8774 55.858C37.9615 55.9882 38.0335 56.1065 38.1055 56.213C38.4417 56.7101 38.8139 57.1598 39.2101 57.5621Z" fill="#2D3436"/>
<path d="M24.5661 27.0178L24.5301 26.9823C24.4941 26.9349 24.362 26.7811 24.1459 26.7692L22.0809 26.4734L21.1205 24.5089C21.0244 24.3314 20.8443 24.213 20.6403 24.1893L20.6042 24.1065L20.5682 24.1893C20.3521 24.2012 20.16 24.3195 20.064 24.5207L19.1395 26.4734L17.0746 26.7929C16.7864 26.8166 16.6664 27.0533 16.6184 27.1361L16.5943 27.1834H16.5703L16.5823 27.1953L16.5703 27.2189V27.3136C16.5703 27.3609 16.5703 27.503 16.6424 27.645L16.6784 27.7041L18.2511 29.2544L17.8909 31.432V31.503C17.8909 31.716 17.963 31.8698 18.0951 31.9645L18.0831 32.0355L18.1431 32C18.2751 32.0947 18.4072 32.0947 18.4552 32.0947C18.5993 32.0947 18.7194 32.0474 18.8034 31.9645L20.5922 30.9941L22.4531 31.9645C22.6092 32.071 22.8013 32.0829 22.9934 32L23.0534 32.0355L23.0414 31.9763C23.2215 31.8817 23.3055 31.7042 23.3055 31.4675L22.9454 29.2189L24.4701 27.6923C24.6381 27.5266 24.6862 27.2781 24.5781 27.0651L24.5661 27.0178ZM20.2801 29.929L19.2116 30.5089L19.4157 29.2544C19.4757 29.0769 19.4397 28.8639 19.2836 28.7219L18.3232 27.7633L19.6798 27.5503L19.7398 27.5266C19.8599 27.4675 19.9319 27.3965 19.9679 27.3609L20.016 27.3136L20.5922 26.1183L21.1205 27.2781L21.1325 27.2899C21.2645 27.5385 21.4566 27.5976 21.5887 27.6095L22.8493 27.787L21.9008 28.7337C21.7448 28.8876 21.7448 29.0651 21.7448 29.1479L21.9729 30.5326L20.8684 29.9408L20.8564 29.929C20.7603 29.8817 20.6763 29.858 20.5802 29.858C20.4602 29.8462 20.3641 29.8698 20.2801 29.929Z" fill="#2D3436"/>
<path d="M34.3826 27.0178L34.3466 26.9823C34.3106 26.9349 34.1785 26.7811 33.9624 26.7693L31.8975 26.4734L30.937 24.5089C30.841 24.3314 30.6609 24.213 30.4568 24.1894L30.4208 24.1065L30.3848 24.1894C30.1687 24.2012 29.9766 24.3195 29.8805 24.5207L28.9561 26.4734L26.8912 26.7929C26.603 26.8166 26.483 27.0533 26.435 27.1361L26.411 27.1835H26.387L26.399 27.1953L26.387 27.219V27.3136C26.387 27.361 26.3869 27.503 26.459 27.645L26.495 27.7042L28.0677 29.2545L27.7076 31.432V31.503C27.7076 31.716 27.7796 31.8699 27.9116 31.9645L27.8996 32.0355L27.9597 32C28.0917 32.0947 28.2238 32.0947 28.2718 32.0947C28.4159 32.0947 28.5359 32.0474 28.62 31.9645L30.4088 30.9941L32.2696 31.9645C32.4257 32.0711 32.6178 32.0829 32.8099 32L32.8699 32.0355L32.8579 31.9764C33.038 31.8817 33.122 31.7042 33.122 31.4675L32.7619 29.219L34.2866 27.6923C34.4546 27.5267 34.5027 27.2781 34.3946 27.0651L34.3826 27.0178ZM30.0846 29.929L29.0161 30.5089L29.2202 29.2545C29.2803 29.077 29.2443 28.8639 29.0882 28.7219L28.1278 27.7633L29.4844 27.5503L29.5444 27.5267C29.6644 27.4675 29.7365 27.3965 29.7725 27.361L29.8205 27.3136L30.3968 26.1184L30.925 27.2781L30.937 27.29C31.0691 27.5385 31.2612 27.5977 31.3932 27.6095L32.6538 27.787L31.7054 28.7338C31.5493 28.8876 31.5493 29.0651 31.5493 29.148L31.7774 30.5326L30.6729 29.9409L30.6609 29.929C30.5649 29.8817 30.4808 29.858 30.3848 29.858C30.2767 29.8462 30.1687 29.8699 30.0846 29.929Z" fill="#2D3436"/>
<path d="M41.7054 26.4734L40.7449 24.5089C40.6489 24.3314 40.4688 24.213 40.2647 24.1893L40.2286 24.1065L40.1927 24.1893C39.9766 24.2012 39.7844 24.3195 39.6884 24.5207L38.764 26.4734L36.699 26.7929C36.4108 26.8166 36.2908 27.0533 36.2427 27.1361L36.2187 27.1834H36.1947L36.2067 27.1953L36.1947 27.2189V27.3136C36.1947 27.3609 36.1947 27.503 36.2668 27.645L36.3028 27.7041L37.8755 29.2544L37.5154 31.432V31.503C37.5154 31.716 37.5874 31.8698 37.7195 31.9645L37.7074 32.0355L37.7675 32C37.8995 32.0947 38.0316 32.0947 38.0796 32.0947C38.2237 32.0947 38.3437 32.0474 38.4278 31.9645L40.2167 30.9941L42.0775 31.9645C42.2336 32.071 42.4257 32.0829 42.6178 32L42.6778 32.0355L42.6658 31.9763C42.8459 31.8817 42.9299 31.7042 42.9299 31.4675L42.5698 29.2189L44.0945 27.6923C44.2626 27.5266 44.3106 27.2781 44.2026 27.0651L44.1665 27.0059L44.1305 26.9704C44.0945 26.9231 43.9624 26.7692 43.7463 26.7574L41.7054 26.4734ZM39.9045 29.929L38.836 30.5089L39.0401 29.2544C39.1001 29.0769 39.0641 28.8757 38.908 28.7219L37.9476 27.7633L39.3042 27.5503L39.3642 27.5266C39.4843 27.4675 39.5564 27.3965 39.5924 27.3609L39.6404 27.3136L40.2167 26.1183L40.7449 27.2781L40.7569 27.2899C40.889 27.5385 41.0811 27.5976 41.2131 27.6095L42.4737 27.787L41.5253 28.7337C41.3692 28.8876 41.3692 29.0651 41.3692 29.1479L41.5973 30.5326L40.4928 29.9408L40.4808 29.929C40.2767 29.8107 40.0606 29.8225 39.9045 29.929Z" fill="#2D3436"/>
</svg>
