<svg width="69" height="68" viewBox="0 0 69 68" fill="none" xmlns="http://www.w3.org/2000/svg">
<path d="M57.3681 3.95739V29.3786H55.1507V3.95739C55.1507 2.9781 54.348 2.18662 53.3549 2.18662H4.01318C3.02009 2.18662 2.21745 2.9781 2.21745 3.95739V38.2995C2.21745 39.2788 3.02009 40.0702 4.01318 40.0702H22.5419V42.2569H19.6442V48.6558H25.4395V50.8424H14.5155V48.6558H17.4131V42.2569H4.01318C1.79573 42.2569 0 40.4861 0 38.2995V3.95739C0 1.77076 1.79573 0 4.01318 0H53.3549C55.5588 0 57.3681 1.77076 57.3681 3.95739Z" fill="#2D3436"/>
<path d="M12.3805 34.3421V36.5287H9.82293C7.60548 36.5287 5.80975 34.7579 5.80975 32.5713V30.0493H8.0272V32.5713C8.0272 33.5506 8.82984 34.3421 9.82293 34.3421H12.3805Z" fill="#2D3436"/>
<path d="M8.0272 24.3212H5.80975V26.5078H8.0272V24.3212Z" fill="#2D3436"/>
<path d="M68.6463 62.1511L59.5316 53.1766C59.3275 52.9753 59.0419 52.8546 58.7426 52.8546C58.4569 52.8546 58.1576 52.9753 57.9535 53.1766L56.7156 54.3973L53.1785 50.9094L53.4098 50.6814C58.5249 44.6045 58.1168 35.8177 52.4439 30.2237C49.5326 27.3529 45.6555 25.77 41.5335 25.77C33.0446 25.7566 26.1201 32.5847 26.1201 40.969C26.1201 49.3533 33.0446 56.1815 41.5471 56.1815C45.1385 56.1815 48.6484 54.9339 51.41 52.6668L51.6549 52.4656L55.1783 55.9266L53.9403 57.1474C53.505 57.5766 53.505 58.2742 53.9403 58.6901L63.055 67.678C63.2591 67.8793 63.5448 68 63.8441 68C63.9937 68 64.1298 67.9732 64.2658 67.9195C64.4018 67.8658 64.5243 67.7854 64.6195 67.678L68.6735 63.6804C68.8776 63.4792 69 63.1975 69 62.9023C69 62.6072 68.864 62.3523 68.6463 62.1511ZM41.5471 53.9949C39.7786 53.9949 38.0645 53.6595 36.4864 53.0022C34.9083 52.3582 33.4527 51.4058 32.2011 50.1716C29.7116 47.7167 28.3376 44.4435 28.3376 40.969C28.3376 33.7921 34.2689 27.9566 41.5471 27.9566H41.5879C45.0569 27.9566 48.4443 29.3517 50.893 31.7798C53.3826 34.2348 54.7566 37.508 54.7566 40.9824C54.743 48.146 48.8252 53.9949 41.5471 53.9949ZM63.8169 65.3707L56.2802 57.9388L58.7562 55.4973L66.2928 62.9292L63.8169 65.3707Z" fill="#2D3436"/>
<path d="M51.5588 40.8214H49.3413C49.1645 36.9579 46.0083 33.8457 42.0904 33.6713V31.4847C47.2191 31.6591 51.3683 35.764 51.5588 40.8214Z" fill="#2D3436"/>
<path d="M41.737 5.72818C39.5195 5.72818 37.7238 7.49895 37.7238 9.68557C37.7238 10.2758 37.8462 10.8527 38.1047 11.3758L38.1183 11.3893L38.1999 11.6173L33.5474 16.2052L33.2753 16.1113L33.2617 16.0979C32.7311 15.8564 32.1734 15.7357 31.5748 15.7357C30.9626 15.7357 30.3776 15.8698 29.8335 16.1247L29.6158 16.232L29.4389 16.0576L24.868 11.5368L25.0721 11.3356C25.3169 10.8124 25.4394 10.249 25.4394 9.67216C25.4394 7.48553 23.6436 5.71477 21.4262 5.71477C19.2087 5.71477 17.413 7.49895 17.413 9.68557C17.413 10.2758 17.549 10.8527 17.8075 11.3893L17.9163 11.6039L12.1754 17.265L13.7535 18.8211L19.4808 13.1466L19.6985 13.2539C20.2426 13.5088 20.8276 13.643 21.4262 13.643C22.0248 13.643 22.5961 13.5222 23.1267 13.2673L23.3443 13.1332L27.9969 17.7211V17.9357L27.9697 18.0028C27.7112 18.5394 27.5888 19.1028 27.5888 19.7065C27.5888 21.8931 29.3845 23.6639 31.602 23.6639C33.8194 23.6639 35.6152 21.8931 35.6152 19.7065C35.6152 19.1296 35.4927 18.5796 35.2479 18.0565L35.0438 17.8552L39.7916 13.1734L40.0501 13.2673C40.5806 13.5088 41.152 13.643 41.7506 13.643C43.968 13.643 45.7638 11.8722 45.7638 9.68557C45.7638 7.49895 43.9544 5.72818 41.737 5.72818ZM21.4262 11.4429C20.4331 11.4429 19.6304 10.6514 19.6304 9.67216C19.6304 8.69287 20.4331 7.91481 21.4262 7.91481C22.4193 7.91481 23.2219 8.70628 23.2219 9.68557C23.2219 10.6649 22.4193 11.4429 21.4262 11.4429ZM31.5884 21.4638C30.5953 21.4638 29.7926 20.6724 29.7926 19.6931C29.7926 18.7138 30.5953 17.9223 31.5884 17.9223C32.5815 17.9223 33.3841 18.7138 33.3841 19.6931C33.3841 20.6724 32.5679 21.4638 31.5884 21.4638ZM41.737 11.4429C40.7439 11.4429 39.9412 10.6514 39.9412 9.67216C39.9412 8.69287 40.7575 7.91481 41.737 7.91481C42.7301 7.91481 43.5327 8.70628 43.5327 9.68557C43.5327 10.6649 42.7301 11.4429 41.737 11.4429Z" fill="#2D3436"/>
</svg>
