<svg width="60" height="60" viewBox="0 0 60 60" fill="none" xmlns="http://www.w3.org/2000/svg">
<path d="M57.1 11.3H52.8V0H7V11.3H2.7C1.2 11.3 0 12.6 0 14V47.4C0 48.9 1.2 50.1 2.7 50.1H24.2L23.1 53.5H17.7C16.2 53.5 15 54.7 15 56.2V59.8H44.8V56.2C44.8 54.7 43.6 53.5 42.1 53.5H36.7L35.6 50.1H57.1C58.6 50.1 59.8 48.9 59.8 47.4V14C59.8 12.6 58.5 11.3 57.1 11.3ZM42.1 55.4C42.5 55.4 42.9 55.8 42.9 56.2V57.9H16.9V56.2C16.9 55.8 17.3 55.4 17.7 55.4H42.1ZM25.1 53.5L26.2 50.1H33.6L34.7 53.5H25.1ZM57.9 47.5C57.9 47.9 57.5 48.3 57.1 48.3H2.7C2.3 48.3 1.9 47.9 1.9 47.5V45.8H57.9V47.5ZM57.9 43.9H1.9V14C1.9 13.6 2.3 13.2 2.7 13.2H7V42.2H8.9V1.9H50.9V42.3H52.8V13.3H57.1C57.5 13.3 57.9 13.7 57.9 14.1V43.9Z" fill="white"/>
<path d="M23.3 5.2H15C13.5 5.2 12.3 6.4 12.3 7.9V15.9C12.3 17.4 13.5 18.6 15 18.6H23.3C24.8 18.6 26 17.4 26 15.9V7.9C26 6.5 24.8 5.2 23.3 5.2ZM24.1 16C24.1 16.4 23.7 16.8 23.3 16.8H15C14.6 16.8 14.2 16.4 14.2 16V8C14.2 7.6 14.6 7.2 15 7.2H23.3C23.7 7.2 24.1 7.6 24.1 8V16Z" fill="white"/>
<path d="M23.3 20.3H15C13.5 20.3 12.3 21.5 12.3 23V31C12.3 32.5 13.5 33.7 15 33.7H23.3C24.8 33.7 26 32.5 26 31V23C26 21.5 24.8 20.3 23.3 20.3ZM24.1 31C24.1 31.4 23.7 31.8 23.3 31.8H15C14.6 31.8 14.2 31.5 14.2 31V23C14.2 22.6 14.6 22.2 15 22.2H23.3C23.7 22.2 24.1 22.6 24.1 23V31Z" fill="white"/>
<path d="M14.1 38C14.1 37.6 14.5 37.2 14.9 37.2H23.2C23.6 37.2 24 37.6 24 38V42.3H26V38C26 36.5 24.8 35.3 23.3 35.3H15C13.5 35.3 12.3 36.5 12.3 38V42.3H14.2V38H14.1Z" fill="white"/>
<path d="M35.8 9.3H28.4V11.2H35.8V9.3Z" fill="white"/>
<path d="M41.9 12.8H28.4V14.7H41.9V12.8Z" fill="white"/>
<path d="M35.8 24.3H28.4V26.2H35.8V24.3Z" fill="white"/>
<path d="M41.9 27.8H28.4V29.7H41.9V27.8Z" fill="white"/>
<path d="M35.8 40.4H28.4V42.3H35.8V40.4Z" fill="white"/>
<path d="M49.3 3.5H47.4V5.4H49.3V3.5Z" fill="white"/>
<path d="M49.3 7H47.4V12.4H49.3V7Z" fill="white"/>
<path d="M39.3 9.3H37.4V11.2H39.3V9.3Z" fill="white"/>
<path d="M39.3 24.3H37.4V26.2H39.3V24.3Z" fill="white"/>
<path d="M39.3 40.4H37.4V42.3H39.3V40.4Z" fill="white"/>
</svg>
