<svg width="58" height="58" viewBox="0 0 58 58" fill="none" xmlns="http://www.w3.org/2000/svg">
<path d="M53.1 23.2H52.1V2.9C52.1 1.3 50.8 0 49.2 0H8.7C7.1 0 5.8 1.3 5.8 2.9V23.2H4.8C2.1 23.2 0 25.4 0 28V53.1C0 55.8 2.2 57.9 4.8 57.9H53.1C55.8 57.9 57.9 55.7 57.9 53.1V28C57.9 25.4 55.7 23.2 53.1 23.2ZM7.7 32.2V2.9C7.7 2.4 8.1 1.9 8.7 1.9H49.2C49.7 1.9 50.2 2.3 50.2 2.9V32.3L29 43.3L7.39999 32.1H7.7V32.2ZM1.89999 28C1.89999 26.4 3.2 25.1 4.8 25.1H5.8V31.3L1.89999 29.3V28ZM4.8 56C3.2 56 1.89999 54.7 1.89999 53.1V31.5L22.2 42L8.2 56H4.8ZM11 56L24 43L28.5 45.3C28.8 45.4 29.1 45.4 29.4 45.3L33.9 43L46.9 56H11ZM56 53.1C56 54.7 54.7 56 53.1 56H49.6L35.6 42L55.9 31.5V53.1H56ZM56 29.4L52.1 31.4V25.2H53.1C54.7 25.2 56 26.5 56 28.1V29.4Z" fill="white"/>
<path d="M47.3 3.9H31.9C31.4 3.9 30.9 4.3 30.9 4.9V12.6C30.9 13.1 31.3 13.6 31.9 13.6H47.3C47.8 13.6 48.3 13.2 48.3 12.6V4.9C48.2 4.3 47.8 3.9 47.3 3.9ZM46.3 11.6H32.8V5.8H46.3V11.6Z" fill="white"/>
<path d="M18.3 3.9H10.6C10.1 3.9 9.60001 4.3 9.60001 4.9V12.6C9.60001 13.1 10 13.6 10.6 13.6H18.3C18.8 13.6 19.3 13.2 19.3 12.6V4.9C19.3 4.3 18.9 3.9 18.3 3.9ZM17.4 11.6H11.6V5.8H17.4V11.6Z" fill="white"/>
<path d="M28.9 5.8V3.9H21.2V5.8H28.9Z" fill="white"/>
<path d="M25.1 7.8H21.2V9.7H25.1V7.8Z" fill="white"/>
<path d="M28.9 7.8H27V9.7H28.9V7.8Z" fill="white"/>
<path d="M28.9 13.6V11.6H21.2V13.6H28.9Z" fill="white"/>
<path d="M47.3 15.5H10.6C10.1 15.5 9.60001 15.9 9.60001 16.5V26.2C9.60001 26.7 10 27.2 10.6 27.2H47.3C47.8 27.2 48.3 26.8 48.3 26.2V16.5C48.2 15.9 47.8 15.5 47.3 15.5ZM46.3 25.1H11.6V17.4H46.3V25.1Z" fill="white"/>
<path d="M48.2 30.9V29H9.60001V30.9H48.2Z" fill="white"/>
<path d="M32.8 36.7H23.1V38.6H32.8V36.7Z" fill="white"/>
<path d="M36.6 36.7H34.7V38.6H36.6V36.7Z" fill="white"/>
<path d="M42.4 34.8V32.9H16.4V34.8H42.4Z" fill="white"/>
</svg>
