<svg width="60" height="60" viewBox="0 0 60 60" fill="none" xmlns="http://www.w3.org/2000/svg">
<path d="M53.4 26.7H51.5V28.6H53.4V26.7Z" fill="white"/>
<path d="M49.6 26.7H47.7V28.6H49.6V26.7Z" fill="white"/>
<path d="M45.8 26.7H43.9V28.6H45.8V26.7Z" fill="white"/>
<path d="M26.7 5.7H5.7C4.6 5.7 3.8 6.6 3.8 7.6V45.7C3.8 46.7 4.7 47.6 5.7 47.6H26.7C27.7 47.6 28.6 46.8 28.6 45.7V7.6C28.6 6.6 27.7 5.7 26.7 5.7ZM26.7 45.8H5.7V7.6H26.7V45.8ZM40 15.3H57.2C58.2 15.3 59.1 14.4 59.1 13.4V1.9C59.1 0.9 58.3 0 57.2 0H40C38.9 0 38.1 0.9 38.1 1.9V3.8H36.2C35.1 3.8 34.3 4.7 34.3 5.7V21H32.4V4.8C32.4 2.2 30.3 0 27.6 0H4.8C2.1 0 0 2.1 0 4.8V54.4C0 57 2.1 59.2 4.8 59.2H27.7C30.3 59.2 32.5 57.1 32.5 54.4V34.4H34.4V49.7C34.4 50.7 35.3 51.6 36.3 51.6H40.6C41 52.4 41.5 53.2 42.2 53.8L48.7 59.5L55.2 53.8C56.5 52.7 57.2 51 57.2 49.3V49C57.2 48 56.9 47 56.3 46.1C55.2 44.5 53.2 43.6 51.2 44C50.3 44.2 49.5 44.6 48.9 45.2L48.6 45.4C47.7 44.5 46.4 43.9 45.1 43.9C43.4 43.9 41.9 44.7 41 46.1C40.3 46.9 40 47.9 40 49V49.2C40 49.3 40 49.5 40 49.6H36.2V34.3C36.2 33.7 35.9 33.2 35.5 32.8C35.3 32.6 35 32.5 34.7 32.5H32.4V28.5H38.1V32.3C38.1 33.3 39 34.2 40 34.2H43.8V35.7C43.8 36.6 44.3 37.5 45.2 37.9C46.2 38.3 47.2 37.9 47.8 37.2L50 34.3H57.2C58.3 34.3 59.1 33.4 59.1 32.4V22.9C59.1 21.9 58.3 21 57.2 21H40C38.9 21 38.1 21.9 38.1 22.9V26.7H32.4V22.9H34.3C35.3 22.9 36.2 22 36.2 21V5.7H38.1V13.3C38.1 14.4 39 15.3 40 15.3ZM41.4 13.3L46.2 8.5L46.3 8.6C46.9 9.2 47.8 9.5 48.6 9.5C49.5 9.5 50.3 9.2 50.9 8.6L51 8.5L55.8 13.3H41.4ZM57.2 12L52.5 7.3L57.2 3.1V12ZM55.7 1.9L49.7 7.2C49.1 7.7 48.2 7.7 47.6 7.2L41.6 1.9H55.7ZM40 3.1L44.7 7.3L40 12V3.1ZM30.5 54.3C30.5 55.9 29.2 57.2 27.6 57.2H4.8C3.2 57.2 1.9 55.9 1.9 54.3V4.8C1.9 3.2 3.2 1.9 4.8 1.9H27.7C29.3 1.9 30.6 3.2 30.6 4.8V54.3H30.5ZM42 49C42 48.3 42.2 47.7 42.5 47.2C43.1 46.4 44 45.8 45 45.8C45.8 45.8 46.6 46.1 47.2 46.7L48.6 48.1L50 46.7C50.6 46.1 51.3 45.8 52.2 45.8C53.2 45.8 54.2 46.3 54.7 47.2C55.1 47.7 55.3 48.4 55.3 49V49.2C55.3 50.4 54.8 51.5 53.9 52.3L48.6 56.9L43.3 52.3C42.4 51.5 41.9 50.4 41.9 49.2V49H42ZM40 22.9H57.2V32.4H49.1L46.3 36.1C46.1 36.3 45.7 36.2 45.7 35.9V32.4H40V22.9ZM26.7 5.7H5.7C4.6 5.7 3.8 6.6 3.8 7.6V45.7C3.8 46.7 4.7 47.6 5.7 47.6H26.7C27.7 47.6 28.6 46.8 28.6 45.7V7.6C28.6 6.6 27.7 5.7 26.7 5.7ZM26.7 45.8H5.7V7.6H26.7V45.8Z" fill="white"/>
<path d="M7.6 11.4V22.8H24.8V11.4H7.6ZM22.9 21H9.5V13.4H22.8V21H22.9Z" fill="white"/>
<path d="M19.1 49.6H13.4C12.4 49.6 11.5 50.5 11.5 51.5V53.4C11.5 54.4 12.4 55.3 13.4 55.3H19.1C20.2 55.3 21 54.5 21 53.4V51.5C21 50.4 20.1 49.6 19.1 49.6ZM13.3 53.4V51.5H19V53.4H13.3Z" fill="white"/>
<path d="M15.2 40H7.6V41.9H15.2V40Z" fill="white"/>
<path d="M24.8 40H17.2V41.9H24.8V40Z" fill="white"/>
<path d="M15.2 32.4H7.6V34.3H15.2V32.4Z" fill="white"/>
<path d="M9.5 24.8H7.6V26.7H9.5V24.8Z" fill="white"/>
<path d="M13.3 24.8H11.4V26.7H13.3V24.8Z" fill="white"/>
<path d="M24.8 36.2H7.6V38.1H24.8V36.2Z" fill="white"/>
</svg>
