<svg width="65" height="60" viewBox="0 0 65 60" fill="none" xmlns="http://www.w3.org/2000/svg">
<path d="M64.0481 51.1672H62.8243V12.6586C62.8243 10.38 60.9341 8.52787 58.6088 8.52787H48.682V0.932735C48.682 0.413069 48.2605 0 47.7301 0C47.6757 0 47.6213 0 47.5533 0.0133248L30.2291 3.19795H23.7971C22.6684 3.19795 21.7573 4.09071 21.7573 5.19667V5.32992H21.6213C19.5136 5.32992 17.6098 6.5558 16.7667 8.44792L16.7259 8.52787H6.39121C4.0659 8.52787 2.17573 10.38 2.17573 12.6586V51.1672H0.951883C0.421548 51.1672 0 51.5803 0 52.0999V55.2979C0 57.5764 1.89017 59.4286 4.21548 59.4286H60.7845C63.1098 59.4286 65 57.5764 65 55.2979V52.0999C65 51.5803 64.5784 51.1672 64.0481 51.1672ZM31.2761 4.90352L46.7782 2.05202V19.0012L31.2761 16.1496V4.90352ZM31.2761 18.0418L33.7238 18.4948V20.2537H31.2761V18.0418ZM23.6611 5.06342H29.3724V15.9897H23.6611V5.06342ZM25.8368 24.5176V17.8552H29.3724V24.5176H25.8368ZM29.3724 26.3831V28.1153C29.3724 29.0747 28.5837 29.8475 27.6046 29.8475C26.6255 29.8475 25.8368 29.0747 25.8368 28.1153V26.3831H29.3724ZM21.6213 7.19539H21.7573V13.8578H21.6213C19.7448 13.8578 18.2218 12.3654 18.2218 10.5266C18.2218 8.68776 19.7448 7.19539 21.6213 7.19539ZM4.0795 12.6586C4.0795 11.406 5.11297 10.3933 6.39121 10.3933H16.318V10.5266C16.318 13.3914 18.6977 15.7233 21.6213 15.7233H21.7573V15.8565C21.7573 16.9625 22.6684 17.8552 23.7971 17.8552H23.9331V28.1153C23.9331 30.1007 25.5785 31.713 27.6046 31.713C29.6308 31.713 31.2761 30.1007 31.2761 28.1153V22.1192H34.6757C35.2061 22.1192 35.6276 21.7061 35.6276 21.1864V18.8413L47.5533 21.0265C47.6213 21.0398 47.6757 21.0398 47.7301 21.0398C48.2605 21.0398 48.682 20.6268 48.682 20.1071V10.3933H58.6088C59.887 10.3933 60.9205 11.406 60.9205 12.6586V51.1672H42.2908C42.046 51.1672 41.7877 51.2738 41.6109 51.4337L39.7071 53.2992H25.2793L23.3755 51.4337C23.1987 51.2605 22.954 51.1672 22.7092 51.1672H4.0795V12.6586ZM63.0962 55.2979C63.0962 56.5504 62.0628 57.5631 60.7845 57.5631H4.21548C2.93724 57.5631 1.90377 56.5504 1.90377 55.2979V53.0327H22.3149L24.2186 54.8981C24.3954 55.0714 24.6402 55.1646 24.8985 55.1646H40.1287C40.387 55.1646 40.6182 55.0714 40.795 54.8981L42.6987 53.0327H63.0962V55.2979Z" fill="#2D3436"/>
<path d="M57.3849 14.7905V45.704C57.3849 46.2237 56.9634 46.6368 56.4331 46.6368H8.56695C8.03661 46.6368 7.61506 46.2237 7.61506 45.704V14.7905C7.61506 14.2709 8.03661 13.8578 8.56695 13.8578H14.9582V15.7233H9.51883V44.7713H55.4812V15.7233H52.2176V13.8578H56.4331C56.9634 13.8578 57.3849 14.2709 57.3849 14.7905Z" fill="#2D3436"/>
<path d="M17.1339 35.1774H15.2301V37.0429H17.1339V35.1774Z" fill="#2D3436"/>
<path d="M51.9456 35.1774H19.5816V37.0429H51.9456V35.1774Z" fill="#2D3436"/>
<path d="M48.682 39.4414H13.0544V41.3069H48.682V39.4414Z" fill="#2D3436"/>
</svg>
