<svg width="474" height="467" viewBox="0 0 474 467" fill="none" xmlns="http://www.w3.org/2000/svg">
<g clip-path="url(#clip0)">
<path d="M155.5 66.5C155.5 74.4348 156 78.5 157.088 84.8924V95.2707C157.088 97.9244 154.933 100.079 152.278 100.079H151.673C149.018 100.079 146.863 97.9244 146.863 95.2707V95.1656L117.579 85.4179V86.7053L111.796 86.4951L115.5 114L106 114.5L101.991 86.101L96.3398 85.8908L97.5 48.1083L117.606 46.2954V47.5828L146.863 37.8351V37.73C146.863 35.0762 149.018 32.9218 151.673 32.9218H152.278C154.933 32.9218 157.088 35.0762 157.088 37.73V48.1083C156 54.5 155.5 58.5652 155.5 66.5Z" fill="#009CFC"/>
<path d="M170.389 45.0342V48.8965L168.707 47.9244L170.389 45.0342Z" fill="#F9533D"/>
<path d="M168.707 82.9481L170.389 82.0022V85.8645L168.707 82.9481Z" fill="#F9533D"/>
<path d="M47.5547 134.104L419.3 72.6223V383.053L50.7091 367.289L47.5547 134.104Z" fill="#D82727"/>
<path d="M96.3398 47.1099V85.8908L101.991 86.101L103.963 86.1798L110.167 86.4163L111.796 86.4689L117.579 86.6791V46.2954L96.3398 47.1099ZM98.9685 83.3685V49.6322L114.977 49.0279V83.9728L98.9685 83.3685Z" fill="#2D3436"/>
<path d="M146.861 37.8351L117.578 47.5828L115.055 48.4236V84.5508L116.658 85.0763L117.552 85.3653L146.835 95.1131L149.464 95.9802V36.968L146.861 37.8351ZM146.861 40.6202V92.3806L117.71 82.6591V50.3154L118.735 49.9738L119.918 49.5797L146.861 40.6202Z" fill="#2D3436"/>
<path d="M152.278 32.9218H151.674C149.019 32.9218 146.863 35.0762 146.863 37.73V95.2707C146.863 97.9244 149.019 100.079 151.674 100.079H152.278C154.933 100.079 157.089 97.9244 157.089 95.2707V37.73C157.089 35.0762 154.933 32.9218 152.278 32.9218ZM154.46 95.2707C154.46 96.4793 153.487 97.4515 152.278 97.4515H151.674C150.465 97.4515 149.492 96.4793 149.492 95.2707V37.73C149.492 36.5213 150.465 35.5492 151.674 35.5492H152.278C153.487 35.5492 154.46 36.5213 154.46 37.73V95.2707Z" fill="#2D3436"/>
<path d="M157.089 48.1083C156.799 47.977 156.537 47.8456 156.247 47.7405L154.46 47.0048H154.434V86.0222H154.46L156.247 85.2865C156.537 85.1551 156.799 85.0501 157.089 84.9187C164.238 81.5818 168.812 74.4615 168.812 66.5266C168.812 58.5655 164.238 51.4452 157.089 48.1083ZM157.089 81.9497C157.089 81.9497 157.062 81.9497 157.062 81.976V51.0511C157.062 51.0511 157.089 51.0511 157.089 51.0773C162.661 54.1777 166.184 60.0369 166.184 66.5266C166.184 72.9901 162.688 78.8493 157.089 81.9497Z" fill="#2D3436"/>
<path d="M115.084 109.354L111.825 86.4688L111.719 85.7331L111.509 84.2092H101.73L101.914 85.5229L101.993 86.1273L105.305 109.38L106.068 114.819H115.82L115.084 109.354ZM109.222 86.8367L112.429 109.354L112.823 112.165H108.381L107.987 109.354L104.78 86.8367H109.222Z" fill="#2D3436"/>
<path d="M192.078 64.1357H177.805V66.7631H192.078V64.1357Z" fill="#2D3436"/>
<path d="M176.574 74.0527L175.262 76.3292L187.616 83.4735L188.929 81.197L176.574 74.0527Z" fill="#2D3436"/>
<path d="M178.118 94.0096L175.831 95.3233L170.389 85.8645L168.707 82.9481L170.389 82.0022L170.994 81.6344L178.118 94.0096Z" fill="#2D3436"/>
<path d="M178.118 36.8892L170.994 49.2381L170.389 48.8965L168.707 47.9244L170.389 45.0342L175.831 35.5754L178.118 36.8892Z" fill="#2D3436"/>
<path d="M187.617 47.4334L175.262 54.5776L176.574 56.8541L188.929 49.7099L187.617 47.4334Z" fill="#2D3436"/>
<path d="M102.23 391.304L111.773 390.515V387.888L102.23 388.65V391.304Z" fill="#2D3436"/>
<path d="M93.293 389.386L72.7632 391.041L67.2956 82.4751L81.1223 83.6838V81.0563L66.0601 79.7426C65.6921 79.7163 65.3241 79.8477 65.0612 80.0842C64.7983 80.3469 64.6406 80.6885 64.6406 81.0563L70.1608 392.46C70.1608 392.827 70.3185 393.169 70.5814 393.406C70.818 393.616 71.1334 393.747 71.4751 393.747C71.5014 393.747 71.554 393.747 71.5803 393.747L93.293 391.987V389.386Z" fill="#2D3436"/>
<path d="M437.253 113.531C437.253 112.848 436.727 112.296 436.044 112.218L192.683 90.8566V93.4841L434.624 114.74L435.834 361.824L120.684 387.179V389.806L437.253 364.32C437.937 364.267 438.462 363.689 438.462 363.006L437.253 113.531Z" fill="#2D3436"/>
<path d="M200.461 108.828L419.297 72.6223V241.067L200.461 108.828Z" fill="#D82727"/>
<path d="M40.117 436.699L23.3125 453.532L25.1696 455.392L41.9742 438.559L40.117 436.699Z" fill="#2D3436"/>
<path d="M25.1615 436.696L23.3047 438.556L40.1092 455.386L41.9661 453.526L25.1615 436.696Z" fill="#2D3436"/>
<path d="M30.9384 20.021C30.0446 19.3116 29.072 18.7073 28.0206 18.2344L26.4434 21.834C27.1794 22.1493 27.8629 22.5696 28.4937 23.0689L30.9384 20.021ZM35.4071 27.1151C35.4071 27.1151 35.4071 27.0888 35.4071 27.1151C35.4071 27.0888 35.4071 27.0888 35.4071 27.0626C35.4071 27.0626 35.4071 27.0626 35.4071 27.0363C35.4071 27.0363 35.4071 27.0363 35.4071 27.01C35.302 26.6159 35.1705 26.248 35.0391 25.8802L31.3327 27.2727C31.6218 28.0084 31.7796 28.7967 31.8584 29.6112L35.7751 29.2696C35.6437 28.2974 35.5385 27.6931 35.4071 27.1151ZM30.9384 33.9464C30.5967 34.6821 30.1498 35.339 29.6241 35.9433L32.6207 38.5182C32.6733 38.4393 32.7259 38.3868 32.8047 38.308L32.831 38.2817C32.831 38.2817 32.831 38.2554 32.8573 38.2554C32.8573 38.2554 32.8573 38.2554 32.8836 38.2291C32.8836 38.2291 32.8836 38.2291 32.9099 38.2029C32.9099 38.1766 32.9362 38.1766 32.9625 38.1503C33.3305 37.6511 33.6722 37.1256 33.9613 36.6001C33.9613 36.6001 33.9613 36.5739 33.9876 36.5739C33.9876 36.5739 33.9876 36.5476 34.0139 36.5476V36.5213C34.0139 36.5213 34.0139 36.495 34.0402 36.495C34.0402 36.495 34.0402 36.495 34.0402 36.4688C34.0402 36.4688 34.0402 36.4425 34.0665 36.4425C34.1191 36.3374 34.1716 36.2323 34.2242 36.1009L30.9384 33.9464ZM25.7074 38.597C24.945 38.8597 24.1564 39.0174 23.3678 39.0436L23.6044 42.9848C24.0776 42.9585 24.5245 42.906 24.9976 42.8272H25.0239H25.0502C25.6285 42.7221 26.2068 42.5644 26.7588 42.3805L25.7074 38.597ZM16.7436 36.7315L14.0887 39.648C14.7721 40.2785 15.5344 40.8303 16.3493 41.3032C16.3756 41.3032 16.3756 41.3295 16.4019 41.3295H16.4282H16.4545H16.4808C16.4808 41.3295 16.507 41.3295 16.507 41.3558C16.5596 41.3821 16.6122 41.4083 16.691 41.4346L18.4785 37.9401C18.0054 37.7299 17.3482 37.257 16.7436 36.7315ZM13.8258 30.3468L9.88281 30.4519C9.88281 30.7935 9.9091 31.1088 9.96167 31.4241C9.96167 31.4241 9.96167 31.4241 9.96167 31.4504C9.96167 31.4504 9.96167 31.4504 9.96167 31.4766V31.5029C9.96167 31.5029 9.96167 31.5029 9.96167 31.5292C9.96167 31.5292 9.96167 31.5292 9.96167 31.5555C10.0405 32.1072 10.1457 32.659 10.2771 33.2107C10.2771 33.2107 10.2771 33.2107 10.2771 33.237C10.2771 33.237 10.2771 33.237 10.2771 33.2633C10.2771 33.2633 10.2771 33.2633 10.2771 33.2896C10.2771 33.2896 10.2771 33.2896 10.2771 33.3158C10.2771 33.3158 10.2771 33.3158 10.2771 33.3421C10.2771 33.3421 10.2771 33.3421 10.2771 33.3684C10.2771 33.3684 10.2771 33.3684 10.2771 33.3947C10.2771 33.3947 10.2771 33.3947 10.2771 33.4209C10.2771 33.4472 10.2771 33.4735 10.3034 33.4998L14.0887 32.3437C13.9835 31.9496 13.8521 31.1613 13.8258 30.3468ZM13.5367 21.072C13.5367 21.0983 13.5367 21.0983 13.5367 21.072C13.5367 21.0983 13.5367 21.0983 13.5367 21.072C13.5104 21.0983 13.5104 21.0983 13.5104 21.0983C13.5104 21.0983 13.4841 21.0983 13.4841 21.1246C13.4841 21.1246 13.4578 21.1246 13.4578 21.1508C13.4578 21.1508 13.4578 21.1508 13.4315 21.1771C13.4315 21.1771 13.4315 21.1771 13.4052 21.2034C13.4052 21.2034 13.3789 21.2034 13.3789 21.2297C13.3789 21.2297 13.3789 21.2296 13.3526 21.2559C13.3526 21.2559 13.3526 21.2822 13.3264 21.2822C13.3264 21.2822 13.3264 21.2822 13.3001 21.3085C13.3001 21.3085 13.3001 21.3347 13.2738 21.3347C13.2738 21.3347 13.2738 21.3347 13.2475 21.361L13.2212 21.3873C13.2212 21.3873 13.2212 21.4136 13.1949 21.4136C13.1949 21.4136 13.1949 21.4136 13.1686 21.4398L13.1424 21.4661C13.1424 21.4661 13.1424 21.4924 13.1161 21.4924C12.7218 21.9916 12.38 22.5434 12.0646 23.0951L14.9298 25.7488C15.3241 25.0394 15.7973 24.4088 16.3493 23.8308L13.5367 21.072ZM22.7633 17.1571C22.737 17.1571 22.737 17.1571 22.7633 17.1571H22.7107H22.6844H22.6581H22.6055H22.5792H22.553H22.5267H22.5004H22.4741H22.4478H22.4215H22.3952H22.369H22.3427H22.3164H22.2901H22.2638H22.2375C21.7118 17.2097 21.2123 17.2622 20.7129 17.3673H20.6866C20.6866 17.3673 20.6866 17.3673 20.6603 17.3673H20.634C20.634 17.3673 20.634 17.3673 20.6078 17.3673C20.6078 17.3673 20.6078 17.3673 20.5815 17.3673C20.5815 17.3673 20.5815 17.3673 20.5552 17.3673H20.5289C20.5289 17.3673 20.5289 17.3673 20.5026 17.3673C20.3449 17.3936 20.2135 17.4461 20.0557 17.4724L21.0809 21.2822C21.8432 21.072 22.6581 20.9669 23.4467 20.9669V17.0258H22.7633V17.1571Z" fill="#2D3436"/>
<path d="M283.658 439.254L283.816 442.591C284.499 442.565 285.209 442.591 285.893 442.696L286.392 439.386C285.472 439.254 284.552 439.202 283.658 439.254ZM278.401 440.542C277.586 440.936 276.797 441.383 276.061 441.934L278.033 444.641C278.585 444.22 279.19 443.879 279.82 443.59L278.401 440.542ZM291.465 441.199L289.757 444.089C290.361 444.43 290.913 444.851 291.413 445.324L293.647 442.828C292.99 442.223 292.254 441.672 291.465 441.199ZM272.408 445.875C271.934 446.637 271.54 447.478 271.198 448.319L274.327 449.501C274.563 448.871 274.879 448.24 275.247 447.636L272.408 445.875ZM296.907 447.137L293.884 448.608C294.199 449.239 294.436 449.869 294.593 450.552L297.827 449.711C297.616 448.792 297.301 447.951 296.907 447.137ZM294.935 453.232C294.935 453.915 294.856 454.625 294.725 455.282L298.011 455.912C298.168 455.019 298.274 454.126 298.274 453.206H294.935V453.232ZM273.669 453.548L270.305 453.653C270.331 454.572 270.462 455.466 270.646 456.359L273.906 455.623C273.774 454.94 273.696 454.257 273.669 453.548ZM293.2 459.091C292.832 459.669 292.385 460.195 291.912 460.694L294.304 463.059C294.935 462.402 295.513 461.693 296.013 460.957L293.2 459.091ZM275.615 459.354L272.881 461.298C273.406 462.034 274.011 462.717 274.642 463.348L276.955 460.931C276.456 460.431 276.009 459.906 275.615 459.354ZM288.495 463.006C287.864 463.269 287.207 463.479 286.523 463.637L287.233 466.921C288.127 466.737 288.994 466.448 289.836 466.107L288.495 463.006ZM280.425 463.138L279.216 466.264C280.057 466.606 280.924 466.842 281.818 467L282.423 463.716C281.739 463.558 281.082 463.374 280.425 463.138Z" fill="#2D3436"/>
<path d="M444.743 0C437.934 0 432.414 5.51761 432.414 12.3227C432.414 19.1277 437.934 24.6453 444.743 24.6453C451.551 24.6453 457.071 19.1277 457.071 12.3227C457.071 5.51761 451.524 0 444.743 0ZM444.743 22.0179C439.406 22.0179 435.043 17.6564 435.043 12.3227C435.043 6.98897 439.406 2.62743 444.743 2.62743C450.079 2.62743 454.442 6.98897 454.442 12.3227C454.442 17.6564 450.079 22.0179 444.743 22.0179Z" fill="#2D3436"/>
<path d="M443.537 421.94L449.504 427.904L434.521 442.88L422.665 437.967L404.922 455.702L406.788 457.568L423.296 441.067L435.151 445.981L451.423 429.717L457.311 434.998L458.704 419.732L443.537 421.94ZM455.182 429.533L452.29 426.932L449.136 423.779L455.813 422.78L455.182 429.533Z" fill="#2D3436"/>
<path d="M0 230.846L6.88709 237.73L13.7742 243.878L15.1674 228.613L0 230.846ZM11.6187 238.466L8.70086 235.865L5.54647 232.712L12.2233 231.74L11.6187 238.466Z" fill="#2D3436"/>
<path d="M275.09 11.7446L287.918 25.1183L289.994 10.2733L275.09 11.7446ZM286.262 19.9685L280.163 13.6364L287.234 12.927L286.262 19.9685Z" fill="#2D3436"/>
<path d="M265.625 21.2297L278.453 34.6033L280.53 19.7583L265.625 21.2297ZM276.771 29.4535L270.672 23.1214L277.743 22.412L276.771 29.4535Z" fill="#2D3436"/>
<path d="M256.137 30.7146L268.965 44.0883L271.041 29.2433L256.137 30.7146ZM267.309 38.9122L261.21 32.5801L268.281 31.8707L267.309 38.9122Z" fill="#2D3436"/>
<path d="M468.876 234.656C471.707 234.656 474.002 232.362 474.002 229.533C474.002 226.703 471.707 224.409 468.876 224.409C466.045 224.409 463.75 226.703 463.75 229.533C463.75 232.362 466.045 234.656 468.876 234.656Z" fill="#2D3436"/>
<path d="M156.89 441.319C157.591 438.577 155.936 435.785 153.193 435.082C150.451 434.38 147.66 436.032 146.96 438.774C146.259 441.516 147.914 444.308 150.657 445.011C153.399 445.714 156.19 444.061 156.89 441.319Z" fill="#2D3436"/>
</g>
<path d="M154.043 207.567C154.043 213.256 152.499 217.7 149.41 220.9C146.321 224.1 142.21 225.7 137.077 225.7C131.944 225.7 127.844 224.1 124.777 220.9C121.71 217.7 120.177 213.256 120.177 207.567V193.967C120.177 188.301 121.71 183.856 124.777 180.634C127.844 177.39 131.932 175.768 137.043 175.768C142.154 175.768 146.266 177.39 149.377 180.634C152.488 183.856 154.043 188.301 154.043 193.967V207.567ZM144.61 193.901C144.61 190.434 143.966 187.823 142.677 186.067C141.388 184.29 139.51 183.401 137.043 183.401C134.555 183.401 132.688 184.279 131.444 186.034C130.199 187.79 129.577 190.412 129.577 193.901V207.567C129.577 211.078 130.21 213.711 131.477 215.467C132.744 217.222 134.61 218.1 137.077 218.1C139.521 218.1 141.388 217.222 142.677 215.467C143.966 213.711 144.61 211.078 144.61 207.567V193.901ZM169.709 207.6V225H160.21V176.468H177.076C181.92 176.468 185.742 177.901 188.542 180.768C191.342 183.634 192.742 187.39 192.742 192.034C192.742 196.701 191.331 200.467 188.509 203.334C185.709 206.178 181.898 207.6 177.076 207.6H169.709ZM169.709 200.001H177.076C179.098 200.001 180.643 199.256 181.709 197.767C182.776 196.278 183.309 194.39 183.309 192.101C183.309 189.79 182.776 187.879 181.709 186.367C180.665 184.834 179.12 184.068 177.076 184.068H169.709V200.001ZM224.608 203.7H208.309V217.433H227.475V225H198.809V176.468H227.408V184.068H208.309V196.134H224.608V203.7ZM266.374 225H256.941L242.108 193.967L241.908 194.034V225H232.408V176.468H241.908L256.741 207.467L256.941 207.4V176.468H266.374V225ZM283.74 225H274.307V176.468H283.74V225ZM325.573 225H316.14L301.307 193.967L301.107 194.034V225H291.607V176.468H301.107L315.94 207.467L316.14 207.4V176.468H325.573V225ZM365.139 217.8C363.828 219.889 361.861 221.733 359.239 223.333C356.617 224.911 353.295 225.7 349.272 225.7C344.073 225.7 339.895 224.178 336.739 221.133C333.606 218.089 332.039 213.756 332.039 208.134V193.334C332.039 187.756 333.551 183.434 336.573 180.368C339.617 177.301 343.639 175.768 348.639 175.768C354.017 175.768 358.05 177.09 360.739 179.734C363.428 182.356 364.828 186.123 364.939 191.034L364.872 191.234H355.972C355.906 188.501 355.295 186.512 354.139 185.267C353.006 184.001 351.261 183.368 348.906 183.368C346.595 183.368 344.784 184.19 343.473 185.834C342.162 187.456 341.506 189.934 341.506 193.267V208.134C341.506 211.534 342.162 214.056 343.473 215.7C344.806 217.322 346.739 218.133 349.272 218.133C351.161 218.133 352.55 217.878 353.439 217.367C354.35 216.856 355.095 216.1 355.672 215.1V206.4H349.272V199.734H365.139V217.8ZM190.342 286.334C190.342 284.445 189.853 282.956 188.876 281.867C187.898 280.756 186.176 279.667 183.709 278.6C178.665 276.845 174.876 274.856 172.343 272.634C169.832 270.389 168.576 267.256 168.576 263.234C168.576 259.256 170.043 256.023 172.976 253.534C175.909 251.023 179.654 249.768 184.209 249.768C188.831 249.768 192.587 251.168 195.476 253.968C198.364 256.745 199.764 260.256 199.676 264.501L199.609 264.701H190.409C190.409 262.479 189.853 260.679 188.742 259.301C187.631 257.923 186.065 257.234 184.043 257.234C182.154 257.234 180.676 257.812 179.609 258.967C178.565 260.101 178.043 261.534 178.043 263.267C178.043 264.867 178.632 266.19 179.809 267.234C180.987 268.256 183.031 269.401 185.942 270.667C190.542 272.223 193.998 274.201 196.309 276.6C198.642 278.978 199.809 282.2 199.809 286.267C199.809 290.467 198.409 293.756 195.609 296.133C192.809 298.511 189.087 299.7 184.442 299.7C179.82 299.7 175.809 298.356 172.409 295.667C169.032 292.956 167.398 289.078 167.51 284.034L167.576 283.834H176.809C176.809 286.834 177.443 288.989 178.709 290.3C179.976 291.611 181.887 292.267 184.442 292.267C186.442 292.267 187.92 291.733 188.876 290.667C189.853 289.6 190.342 288.156 190.342 286.334ZM238.475 281.567C238.475 287.256 236.93 291.7 233.841 294.9C230.753 298.1 226.642 299.7 221.508 299.7C216.375 299.7 212.275 298.1 209.209 294.9C206.142 291.7 204.609 287.256 204.609 281.567V267.967C204.609 262.301 206.142 257.856 209.209 254.634C212.275 251.39 216.364 249.768 221.475 249.768C226.586 249.768 230.697 251.39 233.808 254.634C236.919 257.856 238.475 262.301 238.475 267.967V281.567ZM229.042 267.901C229.042 264.434 228.397 261.823 227.108 260.067C225.819 258.29 223.942 257.401 221.475 257.401C218.986 257.401 217.12 258.279 215.875 260.034C214.631 261.79 214.009 264.412 214.009 267.901V281.567C214.009 285.078 214.642 287.711 215.909 289.467C217.175 291.222 219.042 292.1 221.508 292.1C223.953 292.1 225.819 291.222 227.108 289.467C228.397 287.711 229.042 285.078 229.042 281.567V267.901ZM277.341 281.567C277.341 287.256 275.796 291.7 272.707 294.9C269.619 298.1 265.508 299.7 260.374 299.7C255.241 299.7 251.141 298.1 248.075 294.9C245.008 291.7 243.475 287.256 243.475 281.567V267.967C243.475 262.301 245.008 257.856 248.075 254.634C251.141 251.39 255.23 249.768 260.341 249.768C265.452 249.768 269.563 251.39 272.674 254.634C275.785 257.856 277.341 262.301 277.341 267.967V281.567ZM267.907 267.901C267.907 264.434 267.263 261.823 265.974 260.067C264.685 258.29 262.808 257.401 260.341 257.401C257.852 257.401 255.985 258.279 254.741 260.034C253.497 261.79 252.874 264.412 252.874 267.901V281.567C252.874 285.078 253.508 287.711 254.774 289.467C256.041 291.222 257.908 292.1 260.374 292.1C262.819 292.1 264.685 291.222 265.974 289.467C267.263 287.711 267.907 285.078 267.907 281.567V267.901ZM317.473 299H308.04L293.207 267.967L293.007 268.034V299H283.507V250.468H293.007L307.84 281.467L308.04 281.4V250.468H317.473V299Z" fill="white"/>
<defs>
<clipPath id="clip0">
<rect width="474" height="467" fill="white"/>
</clipPath>
</defs>
</svg>
