<svg xmlns="http://www.w3.org/2000/svg">
  <symbol id="ico-user" width="17" height="20" viewBox="0 0 17 20" fill="none" xmlns="http://www.w3.org/2000/svg">
    <path d="M8.37144 9.63409C9.71988 9.63409 10.8874 9.15939 11.8416 8.22281C12.7955 7.28638 13.2793 6.14059 13.2793 4.81689C13.2793 3.49365 12.7956 2.34772 11.8414 1.41098C10.8872 0.474701 9.71973 0 8.37144 0C7.02283 0 5.8555 0.474701 4.90145 1.41113C3.9474 2.34756 3.46361 3.4935 3.46361 4.81689C3.46361 6.14059 3.9474 7.28653 4.90145 8.22296C5.85581 9.15924 7.0233 9.63409 8.37144 9.63409ZM5.7459 2.23984C6.47795 1.5213 7.3367 1.17203 8.37144 1.17203C9.40601 1.17203 10.2649 1.5213 10.9971 2.23984C11.7292 2.95853 12.0852 3.80157 12.0852 4.81689C12.0852 5.83252 11.7292 6.67541 10.9971 7.3941C10.2649 8.11279 9.40601 8.46207 8.37144 8.46207C7.33702 8.46207 6.47826 8.11264 5.7459 7.3941C5.01369 6.67557 4.65769 5.83252 4.65769 4.81689C4.65769 3.80157 5.01369 2.95853 5.7459 2.23984Z" fill="white" />
    <path d="M16.9588 15.379C16.9313 14.9893 16.8756 14.5642 16.7937 14.1153C16.711 13.663 16.6045 13.2355 16.477 12.8447C16.3452 12.4408 16.1663 12.0419 15.9447 11.6597C15.7151 11.263 15.4453 10.9175 15.1424 10.6332C14.8258 10.3358 14.438 10.0967 13.9897 9.92233C13.5429 9.74884 13.0478 9.66095 12.5181 9.66095C12.3101 9.66095 12.109 9.74472 11.7205 9.99298C11.4814 10.146 11.2017 10.323 10.8896 10.5188C10.6226 10.6857 10.261 10.8421 9.8144 10.9837C9.37865 11.1221 8.93622 11.1923 8.49938 11.1923C8.06285 11.1923 7.62042 11.1221 7.18436 10.9837C6.73819 10.8423 6.37644 10.6859 6.10998 10.519C5.80078 10.325 5.52095 10.148 5.27828 9.99283C4.8901 9.74457 4.68894 9.6608 4.48093 9.6608C3.95113 9.6608 3.45615 9.74884 3.00952 9.92249C2.56149 10.0966 2.17362 10.3357 1.85664 10.6334C1.55381 10.9178 1.28393 11.2631 1.05447 11.6597C0.833257 12.0419 0.654169 12.4406 0.52234 12.8448C0.39502 13.2356 0.288531 13.663 0.205827 14.1153C0.123745 14.5636 0.0682463 14.9889 0.0407301 15.3795C0.0136803 15.7614 0 16.1589 0 16.5605C0 17.6045 0.338122 18.4497 1.00488 19.073C1.66341 19.6881 2.53459 20 3.59435 20H13.4056C14.4651 20 15.3363 19.6881 15.995 19.073C16.6619 18.4502 17 17.6047 17 16.5604C16.9998 16.1574 16.986 15.7599 16.9588 15.379ZM15.1717 18.2239C14.7365 18.6304 14.1588 18.828 13.4055 18.828H3.59435C2.84085 18.828 2.26316 18.6304 1.82819 18.224C1.40146 17.8253 1.19408 17.281 1.19408 16.5605C1.19408 16.1858 1.20667 15.8157 1.23185 15.4605C1.25641 15.112 1.30663 14.7292 1.38109 14.3224C1.45462 13.9206 1.54821 13.5435 1.65952 13.2022C1.76632 12.8749 1.91198 12.5508 2.09263 12.2386C2.26503 11.9411 2.46339 11.6858 2.68228 11.4801C2.88702 11.2877 3.14508 11.1302 3.44916 11.0121C3.73038 10.9029 4.04643 10.843 4.38952 10.834C4.43134 10.8559 4.50581 10.8975 4.62644 10.9747C4.87191 11.1317 5.15485 11.3109 5.46763 11.507C5.82021 11.7276 6.27446 11.9269 6.81716 12.0988C7.37199 12.2749 7.93786 12.3644 8.49953 12.3644C9.0612 12.3644 9.62723 12.2749 10.1817 12.099C10.7249 11.9267 11.179 11.7276 11.5321 11.5067C11.8521 11.3058 12.1272 11.1319 12.3726 10.9747C12.4933 10.8977 12.5677 10.8559 12.6095 10.834C12.9528 10.843 13.2688 10.9029 13.5502 11.0121C13.8541 11.1302 14.1122 11.2878 14.3169 11.4801C14.5358 11.6856 14.7342 11.9409 14.9066 12.2388C15.0874 12.5508 15.2332 12.8751 15.3399 13.2021C15.4513 13.5439 15.5451 13.9207 15.6184 14.3222C15.6927 14.7298 15.7431 15.1128 15.7677 15.4607C15.793 15.8145 15.8058 16.1847 15.8059 16.5605C15.8058 17.2812 15.5984 17.8253 15.1717 18.2239Z" fill="white" />
  </symbol>
  <symbol id="ico-home" width="21" height="20" viewBox="0 0 21 20" fill="none" xmlns="http://www.w3.org/2000/svg">
    <path d="M20.6142 10.3542C20.4553 10.5121 20.2477 10.591 20.0401 10.591C19.8307 10.591 19.6214 10.5108 19.4622 10.3505L18.8181 9.70217V16.8237C18.8181 17.2737 18.4534 17.6384 18.0035 17.6384C17.5535 17.6384 17.1888 17.2737 17.1888 16.8237V8.06219L10.9932 1.82573C10.6892 1.56529 10.2416 1.56432 9.93637 1.82349L3.66468 8.0828C3.66492 8.09066 3.66586 8.09836 3.66586 8.1063V16.7415C3.66586 17.6398 4.39675 18.3707 5.29513 18.3707H15.5596C16.4579 18.3707 17.1888 17.6398 17.1888 16.7415C17.1888 16.2915 17.5535 15.9268 18.0035 15.9268C18.4534 15.9268 18.8181 16.2915 18.8181 16.7415C18.8181 18.5382 17.3563 20 15.5596 20H5.29513C3.49837 20 2.03659 18.5382 2.03659 16.7415V9.70771L1.39009 10.3529C1.07169 10.6707 0.555904 10.6702 0.238032 10.3518C-0.0797984 10.0334 -0.0792688 9.51758 0.239173 9.19971C0.239173 9.19971 8.82683 0.629562 8.8384 0.619257C9.76879 -0.209066 11.1694 -0.206052 12.0962 0.626141C12.1077 0.636486 20.618 9.20219 20.618 9.20219C20.9351 9.52136 20.9334 10.0372 20.6142 10.3542Z" fill="currentColor" />
    <rect x="8" y="11" width="5" height="8" fill="currentColor" />
  </symbol>
  <symbol  id="ico-search" width="21" height="20" viewBox="0 0 21 20" fill="none" xmlns="http://www.w3.org/2000/svg">
    <path fill-rule="evenodd" clip-rule="evenodd" d="M15.9111 13.6581C17.2963 11.9566 17.9492 9.81627 17.7368 7.67244C17.5245 5.52862 16.4629 3.5424 14.768 2.11786C13.0731 0.693311 10.8723 -0.0625465 8.61328 0.00405526C6.35425 0.070657 4.2067 0.954715 2.60752 2.47638C1.00695 3.99909 0.0760291 6.04599 0.00445469 8.19994C-0.0671197 10.3539 0.726043 12.4528 2.22231 14.0689C3.71858 15.6851 5.80534 16.6968 8.05734 16.8979C10.3094 17.0991 12.5571 16.4745 14.3426 15.1515L14.3904 15.1991L19.1026 19.6898C19.2058 19.7882 19.3283 19.8662 19.4632 19.9194C19.598 19.9726 19.7426 20 19.8885 20C20.0345 20 20.179 19.9726 20.3139 19.9194C20.4487 19.8662 20.5712 19.7882 20.6745 19.6898C20.7777 19.5915 20.8595 19.4748 20.9154 19.3463C20.9712 19.2178 21 19.0801 21 18.941C21 18.802 20.9712 18.6643 20.9154 18.5358C20.8595 18.4073 20.7777 18.2906 20.6745 18.1922L15.9611 13.7026C15.9449 13.6873 15.9282 13.6725 15.9111 13.6581ZM13.605 3.97398C14.2322 4.56189 14.731 5.26229 15.0726 6.03479C15.4143 6.80728 15.592 7.63659 15.5956 8.47486C15.5992 9.31313 15.4286 10.1438 15.0935 10.9189C14.7585 11.694 14.2657 12.3983 13.6435 12.991C13.0214 13.5838 12.2822 14.0533 11.4687 14.3725C10.6551 14.6918 9.78326 14.8543 8.90342 14.8509C8.02358 14.8475 7.15316 14.6782 6.34236 14.3526C5.53157 14.0271 4.79644 13.5519 4.17938 12.9543C2.94624 11.7601 2.25833 10.1501 2.26549 8.47486C2.27265 6.79964 2.9743 5.19497 4.21761 4.0104C5.46091 2.82583 7.14514 2.15732 8.90342 2.1505C10.6617 2.14368 12.3516 2.7991 13.605 3.97398Z" fill="white"/>
  </symbol>

</svg>