<svg width="19" height="22" viewBox="0 0 19 22" fill="none" xmlns="http://www.w3.org/2000/svg">
<path d="M17.9413 15.0883L17.9413 15.0884C18.024 15.5418 18.0805 15.9724 18.1084 16.3685M17.9413 15.0883L18.1084 16.3685M17.9413 15.0883C17.8575 14.6302 17.7494 14.1961 17.6196 13.7982L17.6196 13.7982L17.9413 15.0883ZM18.1084 16.3685C18.1359 16.753 18.1498 17.154 18.15 17.5603V17.5604C18.15 18.6396 17.7991 19.5272 17.0973 20.1827L16.995 20.073M18.1084 16.3685L16.995 20.073M16.995 20.073L17.0973 20.1827C16.4061 20.8282 15.496 21.15 14.4056 21.15H4.59435C3.50371 21.15 2.5936 20.8282 1.90249 20.1826M16.995 20.073L1.90249 20.1826M15.044 10.7825L15.0441 10.7825C15.5084 10.9632 15.913 11.212 16.2451 11.5239C16.5597 11.8192 16.8384 12.1765 17.0745 12.5845L15.044 10.7825ZM15.044 10.7825C14.5782 10.6016 14.0644 10.511 13.5181 10.511C13.2629 10.511 13.0294 10.6176 12.6397 10.8666L12.6396 10.8666M15.044 10.7825L12.6396 10.8666M12.6396 10.8666C12.401 11.0194 12.1217 11.1961 11.8099 11.3917C11.5575 11.5495 11.2088 11.7013 10.7691 11.8407L10.769 11.8408M12.6396 10.8666L10.769 11.8408M10.769 11.8408C10.3472 11.9747 9.9201 12.0423 9.49938 12.0423C9.07898 12.0423 8.65183 11.9747 8.22973 11.8408L8.22969 11.8407M10.769 11.8408L8.22969 11.8407M8.22969 11.8407C7.79028 11.7014 7.44149 11.5496 7.18962 11.3918C6.88071 11.1981 6.6013 11.0213 6.3591 10.8665C5.96971 10.6174 5.73616 10.5108 5.48093 10.5108C4.93451 10.5108 4.42088 10.6016 3.95519 10.7827C3.49114 10.963 3.08637 11.2119 2.75395 11.5241L2.85506 11.6317M8.22969 11.8407L2.85506 11.6317M2.85506 11.6317L2.75395 11.5241C2.43941 11.8195 2.16069 12.1766 1.92465 12.5846C1.6984 12.9755 1.51494 13.3838 1.37973 13.7983L1.37972 13.7984M2.85506 11.6317L1.37972 13.7984M1.37972 13.7984C1.25009 14.1962 1.14205 14.6302 1.05827 15.0883M1.37972 13.7984L1.05827 15.0883M1.90249 20.1826L1.90245 20.1826C1.20087 19.5267 0.85 18.6395 0.85 17.5605C0.85 17.1556 0.863791 16.7546 0.891101 16.3689L1.90249 20.1826ZM16.0693 19.1143L16.0693 19.1143C16.4587 18.7505 16.6558 18.2501 16.6559 17.5606C16.6558 17.188 16.6431 16.8214 16.6181 16.4714L16.6181 16.4712C16.5939 16.1298 16.5444 15.7523 16.4709 15.3492C16.3986 14.9535 16.3064 14.5832 16.1973 14.2486C16.094 13.932 15.9526 13.6174 15.7768 13.314L15.7768 13.3139C15.6106 13.0269 15.421 12.7836 15.2143 12.5895L15.3079 12.4897L15.2143 12.5894C15.0256 12.4123 14.7847 12.2642 14.4959 12.1519C14.2433 12.0539 13.958 11.9973 13.6451 11.9853C13.6041 12.008 13.5422 12.0444 13.4534 12.1011C13.2074 12.2586 12.9321 12.4328 12.6118 12.6337L12.6116 12.6338C12.2448 12.8634 11.7782 13.0672 11.2271 13.242C11.2271 13.242 11.2271 13.242 11.2271 13.242L11.1817 13.099C10.6272 13.2749 10.0612 13.3644 9.49953 13.3644C8.93786 13.3644 8.37199 13.2749 7.81716 13.0988C7.27446 12.9269 6.82021 12.7276 6.46763 12.507L16.0693 19.1143ZM16.0693 19.1143C15.6687 19.4884 15.1313 19.678 14.4055 19.678H4.59435C3.86836 19.678 3.33095 19.4884 2.93059 19.1144C2.54109 18.7505 2.34408 18.2499 2.34408 17.5605C2.34408 17.1891 2.35656 16.8226 2.38148 16.4711L2.38148 16.4711C2.40559 16.129 2.455 15.7517 2.52864 15.3494L2.38109 15.3224L2.52864 15.3494C2.60113 14.9533 2.69317 14.5828 2.80212 14.2487C2.90552 13.9318 3.04681 13.6173 3.22246 13.3137C3.38859 13.027 3.5782 12.7837 3.785 12.5894L3.68352 12.4814L3.785 12.5894C3.97364 12.4121 4.21448 12.2642 4.50346 12.1519L4.50347 12.1519C4.75596 12.0538 5.04126 11.9973 5.35396 11.9853C5.39499 12.008 5.45692 12.0443 5.54558 12.1011L5.54562 12.1011C5.79152 12.2584 6.07484 12.4378 6.38796 12.6341L6.38806 12.6341C6.75443 12.8634 7.22114 13.0673 7.77179 13.2418L16.0693 19.1143ZM1.05827 15.0883C0.975356 15.5412 0.919067 15.972 0.891105 16.3689L1.05827 15.0883ZM12.9467 9.32986L12.9467 9.32985C13.929 8.36554 14.4293 7.18132 14.4293 5.81689C14.4293 4.45293 13.9291 3.26856 12.9465 2.30394L12.9465 2.30391C11.964 1.33985 10.7586 0.85 9.37144 0.85C7.98393 0.85 6.77875 1.33985 5.79638 2.30408C4.81392 3.2684 4.31361 4.45277 4.31361 5.81689C4.31361 7.18131 4.81392 8.36569 5.79638 9.33001L5.7964 9.33004C6.77906 10.2941 7.98438 10.7841 9.37144 10.7841C10.7588 10.7841 11.9641 10.2942 12.9467 9.32986ZM6.85097 3.34689C7.55471 2.65615 8.37562 2.32203 9.37144 2.32203C10.3671 2.32203 11.1882 2.65614 11.892 3.34688C12.5957 4.0377 12.9352 4.84231 12.9352 5.81689C12.9352 6.79178 12.5957 7.59625 11.892 8.28707C11.1882 8.97795 10.3671 9.31207 9.37144 9.31207C8.37597 9.31207 7.55504 8.97782 6.85096 8.28704C6.14716 7.59639 5.80769 6.79179 5.80769 5.81689C5.80769 4.84232 6.14716 4.0377 6.85097 3.34689Z" fill="white" stroke="white" stroke-width="0.3"/>
</svg>
