<svg width="20" height="20" viewBox="0 0 20 20" fill="none" xmlns="http://www.w3.org/2000/svg">
<rect y="0.00012207" width="20" height="20" rx="10" fill="url(#paint0_radial)"/>
<path d="M7.917 10.0001C7.917 8.84957 8.84945 7.91662 10 7.91662C11.1505 7.91662 12.0835 8.84957 12.0835 10.0001C12.0835 11.1507 11.1505 12.0836 10 12.0836C8.84945 12.0836 7.917 11.1507 7.917 10.0001ZM6.7907 10.0001C6.7907 11.7726 8.2275 13.2094 10 13.2094C11.7725 13.2094 13.2093 11.7726 13.2093 10.0001C13.2093 8.22762 11.7725 6.79082 10 6.79082C8.2275 6.79082 6.7907 8.22762 6.7907 10.0001ZM12.5863 6.66357C12.5863 6.81191 12.6302 6.95693 12.7126 7.0803C12.7949 7.20367 12.912 7.29985 13.0491 7.35667C13.1861 7.41349 13.3369 7.4284 13.4824 7.39952C13.6279 7.37064 13.7615 7.29926 13.8665 7.19441C13.9714 7.08957 14.0429 6.95596 14.0719 6.81048C14.1009 6.66501 14.0861 6.5142 14.0294 6.37714C13.9727 6.24007 13.8766 6.1229 13.7533 6.04044C13.63 5.95798 13.485 5.91393 13.3366 5.91387H13.3363C13.1375 5.91396 12.9469 5.99297 12.8062 6.13354C12.6656 6.27411 12.5865 6.46474 12.5863 6.66357ZM7.475 15.0875C6.86565 15.0597 6.53445 14.9582 6.31435 14.8725C6.02255 14.7589 5.81435 14.6236 5.59545 14.405C5.37655 14.1864 5.24105 13.9784 5.12795 13.6866C5.04215 13.4666 4.94065 13.1353 4.91295 12.5259C4.88265 11.8671 4.8766 11.6692 4.8766 10.0002C4.8766 8.33112 4.88315 8.13377 4.91295 7.47442C4.9407 6.86507 5.04295 6.53442 5.12795 6.31377C5.24155 6.02197 5.37685 5.81377 5.59545 5.59487C5.81405 5.37597 6.02205 5.24047 6.31435 5.12737C6.53435 5.04157 6.86565 4.94007 7.475 4.91237C8.1338 4.88207 8.3317 4.87602 10 4.87602C11.6683 4.87602 11.8664 4.88257 12.5258 4.91237C13.1351 4.94012 13.4657 5.04237 13.6864 5.12737C13.9782 5.24047 14.1864 5.37627 14.4053 5.59487C14.6242 5.81347 14.7592 6.02197 14.8728 6.31377C14.9586 6.53377 15.0601 6.86507 15.0878 7.47442C15.1181 8.13377 15.1242 8.33112 15.1242 10.0002C15.1242 11.6692 15.1181 11.8666 15.0878 12.5259C15.0601 13.1353 14.958 13.4665 14.8728 13.6866C14.7592 13.9784 14.6239 14.1866 14.4053 14.405C14.1867 14.6234 13.9782 14.7589 13.6864 14.8725C13.4664 14.9583 13.1351 15.0598 12.5258 15.0875C11.867 15.1178 11.669 15.1238 10 15.1238C8.33095 15.1238 8.1336 15.1178 7.475 15.0875ZM7.42325 3.78797C6.7579 3.81827 6.30325 3.92377 5.9062 4.07827C5.495 4.23782 5.1469 4.45187 4.79905 4.79917C4.4512 5.14647 4.2377 5.49512 4.07815 5.90632C3.92365 6.30362 3.81815 6.75802 3.78785 7.42337C3.75705 8.08977 3.75 8.30282 3.75 10.0001C3.75 11.6974 3.75705 11.9105 3.78785 12.5769C3.81815 13.2423 3.92365 13.6966 4.07815 14.0939C4.2377 14.5049 4.45125 14.8539 4.79905 15.2011C5.14685 15.5482 5.495 15.762 5.9062 15.922C6.304 16.0765 6.7579 16.182 7.42325 16.2123C8.09 16.2426 8.3027 16.2501 10 16.2501C11.6973 16.2501 11.9103 16.2431 12.5767 16.2123C13.2421 16.182 13.6965 16.0765 14.0938 15.922C14.5048 15.762 14.8531 15.5484 15.2009 15.2011C15.5488 14.8538 15.7619 14.5049 15.9219 14.0939C16.0764 13.6966 16.1823 13.2422 16.2121 12.5769C16.2424 11.91 16.2495 11.6974 16.2495 10.0001C16.2495 8.30282 16.2424 8.08977 16.2121 7.42337C16.1818 6.75797 16.0764 6.30337 15.9219 5.90632C15.7619 5.49537 15.5482 5.14702 15.2009 4.79917C14.8536 4.45132 14.5048 4.23782 14.0943 4.07827C13.6965 3.92377 13.2421 3.81777 12.5772 3.78797C11.9108 3.75767 11.6978 3.75012 10.0005 3.75012C8.3032 3.75012 8.09 3.75717 7.42325 3.78797Z" fill="white"/>
<defs>
<radialGradient id="paint0_radial" cx="0" cy="0" r="1" gradientUnits="userSpaceOnUse" gradientTransform="translate(4.09989 17.4785) scale(22.0565)">
<stop stop-color="#FAE100"/>
<stop offset="0.0544" stop-color="#FADC04"/>
<stop offset="0.1167" stop-color="#FBCE0E"/>
<stop offset="0.1829" stop-color="#FCB720"/>
<stop offset="0.2514" stop-color="#FE9838"/>
<stop offset="0.3054" stop-color="#FF7950"/>
<stop offset="0.4922" stop-color="#FF1C74"/>
<stop offset="1" stop-color="#6C1CD1"/>
</radialGradient>
</defs>
</svg>
