<svg width="20" height="20" viewBox="0 0 20 20" fill="none" xmlns="http://www.w3.org/2000/svg">
<rect y="0.00012207" width="20" height="20" rx="10" fill="#1DA1F2"/>
<path d="M14.8984 7.83875C14.8984 7.94812 14.8984 8.0575 14.8984 8.15125C14.8984 11.3856 12.4297 15.12 7.92969 15.12C6.53906 15.12 5.25781 14.7137 4.16406 14.0262C4.35156 14.0419 4.55469 14.0575 4.74219 14.0575C5.88281 14.0575 6.94531 13.6669 7.78906 13.0106C6.71094 12.995 5.80469 12.2762 5.50781 11.3075C5.66406 11.3387 5.80469 11.3544 5.97656 11.3544C6.19531 11.3544 6.41406 11.3231 6.61719 11.2606C5.49219 11.0419 4.64844 10.0575 4.64844 8.87C4.64844 8.85437 4.64844 8.85437 4.64844 8.83875C4.97656 9.02625 5.35156 9.13562 5.75781 9.15125C5.10156 8.71375 4.66406 7.96375 4.66406 7.10437C4.66406 6.65125 4.78906 6.22937 4.99219 5.87C6.19531 7.35437 8.00781 8.32312 10.0391 8.4325C9.99219 8.26062 9.97656 8.0575 9.97656 7.87C9.97656 6.51062 11.0703 5.41687 12.4297 5.41687C13.1328 5.41687 13.7734 5.71375 14.2109 6.1825C14.7734 6.07312 15.2891 5.87 15.7734 5.58875C15.5859 6.16687 15.1953 6.63562 14.6953 6.94812C15.1953 6.88562 15.6641 6.76062 16.1016 6.5575C15.7891 7.0575 15.3828 7.495 14.8984 7.83875Z" fill="white"/>
</svg>
