<svg width="20" height="20" viewBox="0 0 20 20" fill="none" xmlns="http://www.w3.org/2000/svg">
<rect y="0.00012207" width="20" height="20" rx="10" fill="#5181B8"/>
<path fill-rule="evenodd" clip-rule="evenodd" d="M16.3634 6.88968C16.4561 6.58065 16.3634 6.35352 15.9222 6.35352H14.4635C14.0926 6.35352 13.9217 6.54971 13.829 6.76611C13.829 6.76611 13.0872 8.57414 12.0363 9.74858C11.6963 10.0886 11.5418 10.1966 11.3564 10.1966C11.2636 10.1966 11.1294 10.0886 11.1294 9.77952V6.88968C11.1294 6.51876 11.0218 6.35352 10.7127 6.35352H8.42046C8.18874 6.35352 8.04933 6.52564 8.04933 6.6888C8.04933 7.04045 8.57466 7.12151 8.62884 8.11049V10.2586C8.62884 10.7295 8.54382 10.815 8.35836 10.815C7.86387 10.815 6.66109 8.99872 5.94759 6.92063C5.80776 6.51668 5.66752 6.35352 5.29473 6.35352H3.83605C3.41929 6.35352 3.33594 6.54971 3.33594 6.76611C3.33594 7.15245 3.83053 9.06873 5.63856 11.6031C6.84405 13.3337 8.54215 14.272 10.0875 14.272C11.0148 14.272 11.1294 14.0636 11.1294 13.7047V12.3966C11.1294 11.9798 11.2173 11.8967 11.5108 11.8967C11.7273 11.8967 12.0981 12.0048 12.9636 12.8393C13.9526 13.8282 14.1155 14.272 14.6719 14.272H16.1306C16.5474 14.272 16.7557 14.0636 16.6355 13.6524C16.504 13.2425 16.0318 12.648 15.4052 11.943C15.0652 11.5412 14.5552 11.1085 14.4008 10.8922C14.1844 10.614 14.2462 10.4904 14.4008 10.2433C14.4008 10.2433 16.1779 7.73978 16.3634 6.88979V6.88968Z" fill="white"/>
</svg>
