<svg width="20" height="20" viewBox="0 0 20 20" fill="none" xmlns="http://www.w3.org/2000/svg">
<rect y="0.00012207" width="20" height="20" rx="10" fill="#FF0000"/>
<path fill-rule="evenodd" clip-rule="evenodd" d="M14.8908 5.89173C15.4262 6.03588 15.8484 6.45804 15.9925 6.99346C16.2602 7.97162 16.2499 10.0103 16.2499 10.0103C16.2499 10.0103 16.2499 12.0387 15.9925 13.0169C15.8484 13.5523 15.4262 13.9745 14.8908 14.1186C13.9126 14.376 9.99997 14.376 9.99997 14.376C9.99997 14.376 6.0976 14.376 5.10914 14.1083C4.57372 13.9642 4.15156 13.542 4.00741 13.0066C3.75 12.0387 3.75 10 3.75 10C3.75 10 3.75 7.97162 4.00741 6.99346C4.15156 6.45804 4.58402 6.02559 5.10914 5.88144C6.0873 5.62402 9.99997 5.62402 9.99997 5.62402C9.99997 5.62402 13.9126 5.62402 14.8908 5.89173ZM12.0078 10L8.75411 11.874V8.12607L12.0078 10Z" fill="white"/>
</svg>
